<?xml version="1.0" encoding="utf-8"?>
<!-- Generator: Adobe Illustrator 12.0.0, SVG Export Plug-In . SVG Version: 6.00 Build 51448)  -->
<!DOCTYPE svg PUBLIC "-//W3C//DTD SVG 1.0//EN" "http://www.w3.org/TR/2001/REC-SVG-20010904/DTD/svg10.dtd" [
	<!ENTITY ns_svg "http://www.w3.org/2000/svg">
	<!ENTITY ns_xlink "http://www.w3.org/1999/xlink">
]>
<svg  version="1.0" id="Calque_1" xmlns="&ns_svg;" xmlns:xlink="&ns_xlink;" width="401" height="401" viewBox="0 0 401 401"
	 overflow="visible" enable-background="new 0 0 401 401" xml:space="preserve">
<g id="Calque_6">
	<rect x="0.5" y="0.5" fill="none" stroke="#FFFFFF" width="400" height="400"/>
</g>
<g id="Calque_6_-_copie">
	<rect x="0.5" y="0.5" fill="#FFFFFF" width="400" height="400"/>
</g>
<g id="Calque_10">
	
		<linearGradient id="XMLID_37_" gradientUnits="userSpaceOnUse" x1="174.3203" y1="444.0762" x2="-0.8899" y2="465.6604" gradientTransform="matrix(1 0.0046 -0.0046 1 1.1965 -193.0119)">
		<stop  offset="0.0056" style="stop-color:#FFFFFF"/>
		<stop  offset="0.3072" style="stop-color:#ECF2F9"/>
		<stop  offset="0.9175" style="stop-color:#BAD2EA"/>
		<stop  offset="1" style="stop-color:#B3CDE8"/>
	</linearGradient>
	<path fill="url(#XMLID_37_)" d="M132.352,262.551c-0.012,2.467-21.149,4.367-47.21,4.246c-26.062-0.12-47.18-2.217-47.168-4.684
		c0.011-2.465,21.148-4.367,47.209-4.246C111.244,257.986,132.363,260.085,132.352,262.551z"/>
	<g>
		
			<linearGradient id="XMLID_38_" gradientUnits="userSpaceOnUse" x1="83.4087" y1="405.668" x2="91.9835" y2="414.5602" gradientTransform="matrix(1 0.0046 -0.0046 1 1.1965 -193.0119)">
			<stop  offset="0" style="stop-color:#FFFFFF"/>
			<stop  offset="0.1178" style="stop-color:#ECF5FE"/>
			<stop  offset="0.3575" style="stop-color:#BADAFA"/>
			<stop  offset="0.6939" style="stop-color:#6AB0F4"/>
			<stop  offset="1" style="stop-color:#1C86EE"/>
		</linearGradient>
		<path fill="url(#XMLID_38_)" d="M97.31,231.516c3.604,1.102,7.562,0.705,10.878-1.084c1.634-0.882,3.253-2.057,4.146-3.707
			c1.082-2,1.968-4.107,2.656-6.276c-4.837,1.114-9.997,0.686-14.668-0.941c-4.639-1.614-9.51-4.573-11.822-9.071
			c-0.322,0.945-1.533,4.672-1.948,5.563c-0.792,1.715-2.018,3.183-3.527,4.313c-1.61,1.174-3.476,1.944-5.383,2.49
			c-1.626,0.467-3.427,0.788-4.47,2.266c-0.958,1.358-0.908,3.221,0.186,4.492c1.237,1.44,3.214,1.707,4.987,1.347
			c2.089-0.425,4.162-1.132,6.109-1.991c1.71-0.759,3.544-1.533,4.893-2.87c1.017,1.453,2.31,2.705,3.792,3.679
			c0.738,0.485,1.522,0.903,2.341,1.239C95.935,231.146,97.335,231.521,97.31,231.516"/>
		
			<linearGradient id="XMLID_39_" gradientUnits="userSpaceOnUse" x1="116.2788" y1="323.1982" x2="123.2704" y2="352.1169" gradientTransform="matrix(1 0.0046 -0.0046 1 1.1965 -193.0119)">
			<stop  offset="0.0056" style="stop-color:#FFF7FF"/>
			<stop  offset="0.1382" style="stop-color:#CEDFFB"/>
			<stop  offset="0.3023" style="stop-color:#98C4F7"/>
			<stop  offset="0.4629" style="stop-color:#6CAEF4"/>
			<stop  offset="0.6163" style="stop-color:#499CF1"/>
			<stop  offset="0.7607" style="stop-color:#3090F0"/>
			<stop  offset="0.8924" style="stop-color:#2189EE"/>
			<stop  offset="1" style="stop-color:#1C86EE"/>
		</linearGradient>
		<path fill="url(#XMLID_39_)" d="M174.477,149.37c-1.717-7.284-6.05-13.56-11.993-16.68c-3.141-1.649-6.73-2.419-10.62-1.987
			c-0.358,0.04-0.718,0.091-1.08,0.153c-0.241,0.04-0.482,0.089-0.726,0.138c-0.106,0.023-0.212,0.042-0.323,0.065
			c-0.308,0.069-0.622,0.148-0.937,0.23c-0.029,0.009-0.06,0.016-0.092,0.025c-0.339,0.091-0.682,0.191-1.029,0.304
			c-1.883,0.602-3.819,1.474-5.792,2.667c-5.371,3.239-9.584,7.517-12.671,12.32c-0.152,0.237-0.292,0.48-0.44,0.719
			c1.439-3.938,3.37-6.728,4.87-8.318c2.659-2.815,6.604-6.074,11.241-7.926c-0.966-0.153-1.872-0.265-2.698-0.336
			c-16.258-1.986-29.712,4.876-36.667,25.514c-1.066,3.163-4.573,14.902-8.382,27.367c-6.451,0.293-15.039,1.458-19.114,5.358
			c-0.838,0.677-1.398,1.678-1.466,2.819c-0.13,2.19,1.591,4.072,3.839,4.202c1.247,0.072,2.391-0.408,3.188-1.223l0.008,0.009
			c1.325-1.434,5.844-2.444,11.01-2.919c-0.134,0.431-0.268,0.859-0.399,1.287c-0.441,1.39-0.881,2.781-1.317,4.173
			c-0.603,1.913-1.202,3.826-1.813,5.737c-0.302,0.951-0.612,1.906-0.922,2.861c-0.085,2.672,1.576,5.438,4.706,7.807
			c4.809,3.637,13.489,6.392,21.196,3.856c0.851-2.68,1.986-6.255,3.244-10.2l0.005,0.002c0.697-2.205,1.44-4.095,2.213-5.721
			c1.443,1.313,2.871,2.75,4.133,4.143c0.805,1.016,1.03,1.549,1.744,2.242c1.937,1.873,4.544,2.156,6.218,0.459
			c1.671-1.694,1.459-4.593-0.475-6.463c-0.093-0.093-0.189-0.174-0.286-0.253c-1.415-1.66-3.807-4.292-6.637-6.756
			c3.407-2.961,6.873-2.732,9.403-1.859c0.031,0.018,0.059,0.039,0.089,0.055c6.104,3.575,13.035,3.278,19.316,0.277
			c5.143-2.456,9.615-6.621,13.029-11.675c3.117-4.618,5.338-9.956,6.482-15.472C175.716,160.68,175.755,154.791,174.477,149.37z
			 M166.884,179.725c-6.431,9.186-17.595,14.081-26.032,7.7c-12.514-9.462-10.605-33.852,5.365-45.267
			c11.919-8.522,22.916-1.749,26.048,9.716C174.663,160.647,172.356,171.909,166.884,179.725z"/>
		
			<linearGradient id="XMLID_40_" gradientUnits="userSpaceOnUse" x1="83.479" y1="405.4453" x2="92.0916" y2="414.3767" gradientTransform="matrix(1 0.0046 -0.0046 1 1.1965 -193.0119)">
			<stop  offset="0" style="stop-color:#FFFFFF"/>
			<stop  offset="0.1178" style="stop-color:#ECF5FE"/>
			<stop  offset="0.3575" style="stop-color:#BADAFA"/>
			<stop  offset="0.6939" style="stop-color:#6AB0F4"/>
			<stop  offset="1" style="stop-color:#1C86EE"/>
		</linearGradient>
		<path fill="url(#XMLID_40_)" d="M97.31,231.516c-0.782,0.461-1.606,0.91-2.524,1.332c-0.142,0.049-0.276,0.108-0.408,0.172
			c-0.531,0.315-1.015,0.679-1.409,1.125c-0.443,0.567-0.74,1.264-0.818,2.035c-0.216,2.152,1.328,4.069,3.446,4.277
			c0.693,0.07,1.36-0.053,1.954-0.321l0.012,0.024c4.804-2.143,8.223-4.848,10.657-7.501c1.381-1.556,2.579-3.251,3.618-5.048
			C108.263,231.455,102.67,233.15,97.31,231.516z"/>
		
			<linearGradient id="XMLID_41_" gradientUnits="userSpaceOnUse" x1="98.8281" y1="421.3633" x2="101.5017" y2="424.1357" gradientTransform="matrix(1 0.0046 -0.0046 1 1.1965 -193.0119)">
			<stop  offset="0" style="stop-color:#FFFFFF"/>
			<stop  offset="0.1178" style="stop-color:#ECF5FE"/>
			<stop  offset="0.3575" style="stop-color:#BADAFA"/>
			<stop  offset="0.6939" style="stop-color:#6AB0F4"/>
			<stop  offset="1" style="stop-color:#1C86EE"/>
		</linearGradient>
		<path fill="url(#XMLID_41_)" d="M97.31,231.516c-0.782,0.461-1.606,0.91-2.524,1.332c-0.142,0.049-0.276,0.108-0.408,0.172
			c-0.531,0.315-1.015,0.679-1.409,1.125c-0.443,0.567-0.74,1.264-0.818,2.035c-0.216,2.152,1.328,4.069,3.446,4.277
			c0.693,0.07,1.36-0.053,1.954-0.321l0.012,0.024c4.804-2.143,8.223-4.848,10.657-7.501c1.381-1.556,2.579-3.251,3.618-5.048
			C108.263,231.455,102.67,233.15,97.31,231.516z"/>
		
			<linearGradient id="XMLID_42_" gradientUnits="userSpaceOnUse" x1="87.1963" y1="372.2148" x2="91.0126" y2="381.7556" gradientTransform="matrix(1 0.0046 -0.0046 1 1.1965 -193.0119)">
			<stop  offset="0" style="stop-color:#FFFFFF"/>
			<stop  offset="0.1178" style="stop-color:#ECF5FE"/>
			<stop  offset="0.3575" style="stop-color:#BADAFA"/>
			<stop  offset="0.6939" style="stop-color:#6AB0F4"/>
			<stop  offset="1" style="stop-color:#1C86EE"/>
		</linearGradient>
		<path fill="url(#XMLID_42_)" d="M80.141,195.28c1.184,0.06,2.269-0.404,3.019-1.182l0.008,0.008
			c1.96-2.155,11.404-3.377,18.993-3.167l0.376,0.009c0.003,0,0.374-0.063,0.374-0.063s2.003-1.696,1.504-4.474
			c-0.498-2.778-2.039-3.085-2.039-3.085c-4.412-0.126-18.979-0.093-24.539,5.303c-0.792,0.65-1.317,1.603-1.372,2.689
			C76.358,193.399,78.005,195.174,80.141,195.28z"/>
		
			<linearGradient id="XMLID_43_" gradientUnits="userSpaceOnUse" x1="128.3442" y1="407.792" x2="128.9795" y2="390.3197" gradientTransform="matrix(1 0.0046 -0.0046 1 1.1965 -193.0119)">
			<stop  offset="0" style="stop-color:#FFFFFF"/>
			<stop  offset="0.1178" style="stop-color:#ECF5FE"/>
			<stop  offset="0.3575" style="stop-color:#BADAFA"/>
			<stop  offset="0.6939" style="stop-color:#6AB0F4"/>
			<stop  offset="1" style="stop-color:#1C86EE"/>
		</linearGradient>
		<path fill="url(#XMLID_43_)" d="M133.314,202.32c-0.088-0.092-0.181-0.176-0.277-0.258c-1.758-2.146-5.083-5.917-8.93-8.921
			c-0.853,2.684-1.741,5.481-2.617,8.238c1.43,1.348,2.844,2.824,4.087,4.251c0.774,1.021,0.981,1.546,1.683,2.251
			c1.89,1.902,4.528,2.299,6.29,0.729C135.31,207.039,135.207,204.223,133.314,202.32z"/>
	</g>
</g>
<g id="Calque_7">
	<path fill="#1C86EE" d="M361.816,214.289c-0.555-1.294-2.082-1.932-3.096-2.354l0,0c-5.414-2.272-11.367-2.057-16.336,0.598
		c-2.316,1.24-3.932,2.813-4.8,4.672c-1.2,2.574-0.581,4.955,1.743,6.704c1.91,1.438,4.195,2.097,6.374,2.647
		c2.919,0.735,4.481,1.904,4.78,3.57c0.361,2.002-2.281,4.146-4.189,4.688c-2.339,0.664-4.615,0.223-6.09-1.183
		c-0.199-0.188-0.395-0.396-0.602-0.61c-0.67-0.705-1.428-1.504-2.463-1.832c-1.443-0.455-3.016,0.175-3.934,0.996
		c-0.787,0.709-1.146,1.584-1.038,2.529c0.172,1.501,1.493,2.859,2.728,3.541c3.717,2.053,8.928,2.201,15.481,0.445
		c4.157-1.109,8.888-4.43,9.446-9.092c0.617-5.114-4.359-6.334-7.994-7.226c-0.51-0.125-0.989-0.241-1.441-0.364
		c-1.289-0.351-3.558-1.146-4.242-2.533c-0.27-0.545-0.267-1.135,0.008-1.801c0.908-2.207,4.115-3.142,6.271-2.468
		c0.797,0.246,1.54,0.813,2.328,1.411c1.514,1.146,3.229,2.45,5.416,1.154C361.386,217.07,362.376,215.602,361.816,214.289z"/>
	<path fill="#1C86EE" d="M332.934,221.484c0.896-2.74,2.396-7.33-0.688-9.549l-0.293,0.404l0.292-0.406
		c-2.327-1.668-5.641-1.58-7.93-1.369c-1.478,0.137-2.885,0.425-4.181,0.855c-0.001,0-0.288,0.098-0.288,0.098
		c-1.332,0.447-2.592,0.873-3.971,0.851c-0.729-0.013-1.404-0.339-2.121-0.685c-0.337-0.164-0.686-0.332-1.045-0.468
		c-1.458-0.559-2.98-0.896-4.527-1.004c-1.535-0.104-2.969,0.009-4.255,0.34c-0.55,0.144-1.086,0.328-1.604,0.509
		c-0.881,0.306-1.713,0.594-2.598,0.678c-0.951,0.092-1.959-0.059-3.021-0.219c-1.872-0.28-3.811-0.57-5.551,0.502
		c-2.228,1.371-2.986,3.892-3.661,6.112c-0.134,0.443-0.261,0.863-0.397,1.275l-0.767,2.305l-2.312,6.94
		c0.002-0.002-0.604,1.755-0.604,1.755c-0.521,1.479-1.061,3.012-1.432,4.563c-0.23,0.979-0.847,3.579,1.035,4.479
		c2.139,1.021,4.373-0.661,5.642-2.783c0.559-0.936,0.891-1.959,1.213-2.949l0.146-0.441l1.545-4.631
		c0.188-0.561,0.371-1.139,0.547-1.695c0.613-1.94,1.248-3.946,2.234-5.696c1.688-2.985,5.711-5.351,9.276-3.959
		c1.584,0.617,2.38,2.265,2.024,4.192c-0.176,0.955-0.521,1.916-0.856,2.847c-0.136,0.373-0.272,0.76-0.401,1.144
		c0.001-0.002-1.502,4.526-1.502,4.526c0,0.001-0.23,0.711-0.23,0.711c-0.359,1.11-0.731,2.261-1.067,3.401
		c0,0.002-0.034,0.117-0.034,0.117c-0.371,1.269-0.88,3.004-0.1,4.386c0.343,0.604,0.896,0.998,1.598,1.144
		c1.268,0.262,2.779-0.328,3.646-0.988c1.888-1.434,2.66-3.998,3.283-6.062l0.129-0.43c0.496-1.632,1.033-3.28,1.556-4.876
		l1.135-3.526c0.685-2.166,1.706-4.584,4.11-6.094c1.539-0.97,4.096-1.724,6.229-0.66c2.33,1.158,1.846,3.854,1.063,6.341
		c-0.785,2.495-1.678,5.323-2.629,8.047c-0.785,2.239-1.48,5.246-0.34,6.85c0.506,0.71,1.293,1.066,2.344,1.063
		c3.262-0.006,4.781-4.176,5.512-6.18c0.945-2.602,1.793-5.282,2.611-7.877l1.217-3.813L332.934,221.484z"/>
	<path fill="#1C86EE" d="M286.293,206.096L286.293,206.096c0.343-1.027,0.813-2.433,0.409-3.736
		c-0.392-1.264-1.681-1.856-3.45-1.587c-2.132,0.322-3.745,1.887-4.794,4.649c-1.485,3.897-2.763,7.963-3.996,11.894l-1.819,5.703
		l-3.004,9.133c-0.09,0.276-0.209,0.598-0.337,0.937c-0.638,1.703-1.513,4.034-0.442,5.642c0.371,0.563,0.947,0.918,1.664,1.028
		c1.274,0.199,2.832-0.405,3.709-1.106c1.474-1.172,2.271-2.934,2.855-4.504c0.374-1.004,0.678-2.039,0.971-3.039l0.409-1.371
		c0.527-1.696,1.107-3.418,1.669-5.077l0.793-2.359l3.387-10.229L286.293,206.096z"/>
	<path fill="#1C86EE" d="M258.689,216.548c0.924-0.672,1.881-1.366,2.649-2.274l-0.382-0.322l0.382,0.32
		c0.978-1.148,0.361-2.498-0.087-3.479c-0.063-0.142-0.125-0.272-0.182-0.399c-0.522-1.228-0.661-2.303-0.409-3.195
		c0.325-1.149,1.299-1.73,2.325-2.346c1.063-0.636,2.158-1.289,2.646-2.604c0.362-0.98,0.055-1.628-0.268-1.999
		c-1.17-1.345-4.295-1.155-5.301-0.934c-2.381,0.527-4.61,1.93-6.631,4.171c-0.748,0.832-1.404,1.769-2.043,2.675
		c-0.918,1.31-1.869,2.659-3.078,3.655c-0.201,0.166-0.416,0.326-0.646,0.496c-0.773,0.576-1.65,1.229-2.086,2.213
		c-0.551,1.244-0.035,2.42,0.421,3.457c0.104,0.24,0.203,0.466,0.287,0.687c0.716,1.88,0.542,3.286-0.027,5.222
		c-0.452,1.531-0.969,3.077-1.466,4.572l-0.216,0.651c-0.284,0.86-0.604,1.731-0.911,2.573c-0.354,0.968-0.719,1.963-1.039,2.963
		l-0.057,0.179c-0.538,1.664-1.537,4.758,0.082,6.278c0.506,0.478,1.168,0.713,1.912,0.684c1.404-0.057,2.912-1.035,3.721-1.923
		c1.145-1.263,1.843-2.817,2.427-4.312c0.863-2.209,1.562-4.514,2.233-6.742c0.445-1.474,0.906-3,1.41-4.479
		c0.498-1.459,0.994-2.76,2.037-3.891C257.064,217.729,257.854,217.154,258.689,216.548z"/>
	<path fill="#1C86EE" d="M269.717,217.718c0.094-0.268,0.219-0.565,0.35-0.881c0.44-1.063,0.938-2.271,0.746-3.364l0,0
		c-0.133-0.777-0.52-1.373-1.119-1.722c-1.143-0.663-2.629-0.241-3.217-0.026c-1.979,0.719-3.215,2.045-4.009,4.301l-1.608,4.451
		l-1.578,4.369l-0.934,2.745c-0.517,1.538-1.05,3.132-1.638,4.666c0-0.001-0.12,0.308-0.12,0.308
		c-0.57,1.472-1.279,3.301-0.947,4.998c0.183,0.931,0.75,1.604,1.604,1.892c1.36,0.464,3.166-0.138,4.124-0.981
		c1.904-1.688,2.666-4.072,3.4-6.381c0.149-0.469,0.306-0.949,0.465-1.415l1.729-4.997l1.375-3.975L269.717,217.718z"/>
	<path fill="#1C86EE" d="M268.672,205.604l-0.064-0.035c0.856,0.574,2.059,0.556,3.295-0.057c1.154-0.568,2.354-1.705,2.438-2.964
		c0.032-0.51-0.109-1.237-0.979-1.815c-1.198-0.799-2.836-0.41-3.969,0.221c-1.322,0.735-2.154,1.851-2.121,2.844
		C267.285,204.327,267.543,205.07,268.672,205.604z"/>
	<path fill="#1C86EE" d="M243.664,206.609c-0.536-2.534-2.408-4.866-5.137-6.403v0.001c-4.123-2.324-9.782-2.643-15.936-0.9
		c-4.531,1.287-8.775,3.886-12.271,7.52c-3.365,3.501-5.928,7.81-7.405,12.461c-1.983,6.237-1.365,11.944,1.692,15.657
		c3.623,4.396,9.799,4.787,13.156,4.63c5.514-0.263,10.828-2.232,15.373-5.698c1.641-1.25,4.695-3.578,4.504-6.227
		c-0.041-0.551-0.298-1.025-0.742-1.371c-0.721-0.559-1.801-0.672-2.556-0.537c-1.313,0.24-2.401,1.132-3.362,1.917l-0.479,0.389
		c-2.046,1.613-4.272,3.252-7.017,4c-2.678,0.726-5.363,0.789-7.562,0.183c-6.377-1.769-4.817-9.795-4.188-12.211
		c1.424-5.474,4.892-10.271,9.272-12.834c4.22-2.465,11.136-2.82,14.313,0.611c0.431,0.465,0.779,1.077,1.117,1.67
		c0.867,1.523,1.852,3.25,4.373,2.498C243.193,211.252,244.232,209.3,243.664,206.609z"/>
	<path fill="#1C86EE" d="M195.014,200.358c-4.125-2.321-9.783-2.64-15.929-0.898c-9.037,2.563-16.578,10.218-19.681,19.979
		c-1.984,6.237-1.367,11.947,1.693,15.658c3.623,4.396,9.797,4.789,13.156,4.629c5.557-0.263,10.905-2.259,15.466-5.771
		c3.394-2.608,8.061-6.667,9.378-11.749c0.597-2.301,0.181-4.008-1.17-4.807c-0.845-0.495-1.885-0.568-2.803-0.637
		c-0.206-0.014-0.4-0.027-0.587-0.047c-1.673-0.16-3.056-0.195-4.354-0.107c-3.946,0.262-6.429,1.339-7.382,3.201
		c-1.097,2.149,0.78,3.272,2.152,4.092c0.641,0.385,1.305,0.781,1.638,1.217c0.889,1.164-0.19,3.023-1.131,3.988
		c-1.286,1.313-2.922,2.291-4.861,2.904c-1.461,0.463-6.507,1.797-10.067-0.443c-3.353-2.11-3.175-6.659-2.772-9.184
		c0.628-3.934,2.165-7.484,4.44-10.269l-0.387-0.317l0.387,0.316c2.055-2.516,4.07-4.229,6.162-5.24
		c2.318-1.122,5.071-1.568,7.962-1.29c1.945,0.188,4.565,0.861,5.996,2.998c0.229,0.341,0.421,0.705,0.626,1.092
		c0.359,0.679,0.731,1.382,1.315,1.966c1.229,1.229,3.069,0.5,3.854,0.188c2.255-0.897,2.553-3.56,1.848-5.798
		C199.248,203.77,197.491,201.755,195.014,200.358z"/>
	<path fill="#1C86EE" d="M361.816,214.289c-0.555-1.294-2.082-1.932-3.096-2.354l0,0c-5.414-2.272-11.367-2.057-16.336,0.598
		c-2.316,1.24-3.932,2.813-4.8,4.672c-1.2,2.574-0.581,4.955,1.743,6.704c1.91,1.438,4.195,2.097,6.374,2.647
		c2.919,0.735,4.481,1.904,4.78,3.57c0.361,2.002-2.281,4.146-4.189,4.688c-2.339,0.664-4.615,0.223-6.09-1.183
		c-0.199-0.188-0.395-0.396-0.602-0.61c-0.67-0.705-1.428-1.504-2.463-1.832c-1.443-0.455-3.016,0.175-3.934,0.996
		c-0.787,0.709-1.146,1.584-1.038,2.529c0.172,1.501,1.493,2.859,2.728,3.541c3.717,2.053,8.928,2.201,15.481,0.445
		c4.157-1.109,8.888-4.43,9.446-9.092c0.617-5.114-4.359-6.334-7.994-7.226c-0.51-0.125-0.989-0.241-1.441-0.364
		c-1.289-0.351-3.558-1.146-4.242-2.533c-0.27-0.545-0.267-1.135,0.008-1.801c0.908-2.207,4.115-3.142,6.271-2.468
		c0.797,0.246,1.54,0.813,2.328,1.411c1.514,1.146,3.229,2.45,5.416,1.154C361.386,217.07,362.376,215.602,361.816,214.289z"/>
	<path fill="#1C86EE" d="M332.934,221.484c0.896-2.74,2.396-7.33-0.688-9.549l-0.001-0.002c-2.327-1.668-5.641-1.58-7.93-1.369
		c-1.478,0.137-2.885,0.425-4.181,0.855c-0.001,0-0.288,0.098-0.288,0.098c-1.332,0.447-2.592,0.873-3.971,0.851
		c-0.729-0.013-1.404-0.339-2.121-0.685c-0.337-0.164-0.686-0.332-1.045-0.468c-1.458-0.559-2.98-0.896-4.527-1.004
		c-1.535-0.104-2.969,0.007-4.255,0.34c-0.55,0.144-1.086,0.328-1.604,0.509c-0.881,0.306-1.713,0.594-2.598,0.678
		c-0.951,0.092-1.959-0.061-3.021-0.219c-1.872-0.281-3.811-0.57-5.551,0.502c-2.228,1.371-2.986,3.892-3.661,6.112
		c-0.134,0.443-0.261,0.863-0.397,1.275l-0.767,2.305l-2.312,6.94c0.002-0.002-0.604,1.755-0.604,1.755
		c-0.521,1.479-1.061,3.012-1.432,4.563c-0.23,0.979-0.847,3.579,1.035,4.479c2.139,1.021,4.373-0.661,5.642-2.783
		c0.559-0.936,0.891-1.959,1.213-2.949l0.146-0.441l1.545-4.631c0.188-0.561,0.371-1.139,0.547-1.695
		c0.613-1.94,1.248-3.946,2.234-5.696c1.688-2.985,5.711-5.351,9.276-3.959c1.584,0.617,2.38,2.265,2.024,4.192
		c-0.176,0.955-0.521,1.916-0.856,2.847c-0.136,0.373-0.272,0.76-0.401,1.144c0.001-0.002-1.502,4.526-1.502,4.526
		c0,0.001-0.23,0.711-0.23,0.711c-0.359,1.11-0.731,2.261-1.067,3.401c0,0.002-0.034,0.117-0.034,0.117
		c-0.371,1.269-0.88,3.004-0.1,4.386c0.343,0.604,0.896,0.998,1.598,1.144c1.268,0.262,2.779-0.328,3.646-0.988
		c1.888-1.434,2.66-3.998,3.283-6.062l0.129-0.43c0.496-1.632,1.033-3.28,1.556-4.877l1.135-3.525
		c0.685-2.166,1.706-4.584,4.11-6.094c1.539-0.97,4.096-1.724,6.229-0.66c2.33,1.158,1.846,3.854,1.063,6.341
		c-0.785,2.495-1.678,5.323-2.629,8.047c-0.785,2.239-1.48,5.246-0.34,6.85c0.506,0.709,1.293,1.066,2.344,1.063
		c3.262-0.006,4.781-4.176,5.512-6.18c0.945-2.602,1.793-5.282,2.611-7.877l1.217-3.813L332.934,221.484z"/>
	<path fill="#1C86EE" d="M286.293,206.096L286.293,206.096c0.343-1.027,0.813-2.433,0.409-3.736
		c-0.392-1.264-1.681-1.856-3.45-1.587c-2.132,0.322-3.745,1.887-4.794,4.649c-1.485,3.897-2.763,7.963-3.996,11.894l-1.819,5.703
		l-3.004,9.133c-0.09,0.276-0.209,0.598-0.337,0.937c-0.638,1.703-1.513,4.034-0.442,5.642c0.371,0.563,0.947,0.918,1.664,1.028
		c1.274,0.199,2.832-0.405,3.709-1.106c1.474-1.172,2.271-2.934,2.855-4.504c0.374-1.004,0.678-2.039,0.971-3.039l0.409-1.371
		c0.527-1.696,1.107-3.418,1.669-5.077l0.793-2.359l3.387-10.229L286.293,206.096z"/>
	<path fill="#1C86EE" d="M258.689,216.548c0.924-0.672,1.881-1.366,2.649-2.274v-0.002c0.978-1.148,0.361-2.498-0.087-3.479
		c-0.063-0.142-0.125-0.272-0.182-0.399c-0.522-1.228-0.661-2.303-0.409-3.195c0.325-1.149,1.299-1.73,2.325-2.346
		c1.063-0.636,2.158-1.289,2.646-2.604c0.362-0.98,0.055-1.628-0.268-1.999c-1.17-1.345-4.295-1.155-5.301-0.934
		c-2.381,0.527-4.61,1.93-6.631,4.171c-0.748,0.832-1.404,1.769-2.043,2.675c-0.918,1.31-1.869,2.659-3.078,3.655
		c-0.201,0.166-0.416,0.326-0.646,0.496c-0.773,0.576-1.65,1.229-2.086,2.213c-0.551,1.244-0.035,2.42,0.421,3.457
		c0.104,0.24,0.203,0.466,0.287,0.687c0.716,1.88,0.542,3.286-0.027,5.222c-0.452,1.531-0.969,3.077-1.466,4.572l-0.216,0.651
		c-0.284,0.86-0.604,1.731-0.911,2.573c-0.354,0.968-0.719,1.963-1.039,2.963l-0.057,0.179c-0.538,1.664-1.537,4.758,0.082,6.278
		c0.506,0.478,1.168,0.713,1.912,0.684c1.404-0.057,2.912-1.035,3.721-1.923c1.145-1.263,1.843-2.817,2.427-4.312
		c0.863-2.209,1.562-4.514,2.233-6.742c0.445-1.474,0.906-3,1.41-4.479c0.498-1.459,0.994-2.76,2.037-3.891
		C257.064,217.729,257.854,217.154,258.689,216.548z"/>
	<path fill="#1C86EE" d="M269.717,217.718c0.094-0.268,0.219-0.565,0.35-0.881c0.44-1.063,0.938-2.271,0.746-3.364l0,0
		c-0.133-0.777-0.52-1.373-1.119-1.722c-1.143-0.663-2.629-0.241-3.217-0.026c-1.979,0.719-3.215,2.045-4.009,4.301l-1.608,4.451
		l-1.578,4.369l-0.934,2.745c-0.517,1.538-1.05,3.132-1.638,4.666c0-0.001-0.12,0.308-0.12,0.308
		c-0.57,1.472-1.279,3.301-0.947,4.998c0.183,0.931,0.75,1.604,1.604,1.892c1.36,0.464,3.166-0.138,4.124-0.981
		c1.904-1.688,2.666-4.072,3.4-6.381c0.149-0.469,0.306-0.949,0.465-1.415l1.729-4.997l1.375-3.975L269.717,217.718z"/>
	<path fill="#1C86EE" d="M268.672,205.604l-0.064-0.035c0.856,0.574,2.059,0.556,3.295-0.057c1.154-0.568,2.354-1.705,2.438-2.964
		c0.032-0.51-0.109-1.237-0.979-1.815c-1.198-0.799-2.836-0.41-3.969,0.221c-1.322,0.735-2.154,1.851-2.121,2.844
		C267.285,204.327,267.543,205.07,268.672,205.604z"/>
	<path fill="#1C86EE" d="M243.664,206.609c-0.536-2.534-2.408-4.866-5.137-6.403v0.001c-4.123-2.324-9.782-2.643-15.936-0.9
		c-4.531,1.287-8.775,3.886-12.271,7.52c-3.365,3.501-5.928,7.81-7.405,12.461c-1.983,6.237-1.365,11.944,1.692,15.657
		c3.623,4.396,9.799,4.787,13.156,4.63c5.514-0.263,10.828-2.232,15.373-5.698c1.641-1.25,4.695-3.578,4.504-6.227
		c-0.041-0.551-0.298-1.025-0.742-1.371c-0.721-0.559-1.801-0.672-2.556-0.537c-1.313,0.24-2.401,1.132-3.362,1.917l-0.479,0.389
		c-2.046,1.613-4.272,3.252-7.017,4c-2.678,0.726-5.363,0.789-7.562,0.183c-6.377-1.769-4.817-9.795-4.188-12.211
		c1.424-5.474,4.892-10.271,9.272-12.834c4.22-2.465,11.136-2.82,14.313,0.611c0.431,0.465,0.779,1.077,1.117,1.67
		c0.867,1.523,1.852,3.25,4.373,2.498C243.193,211.252,244.232,209.3,243.664,206.609z"/>
	<path fill="#1C86EE" d="M195.014,200.358c-4.125-2.321-9.783-2.64-15.929-0.898c-9.037,2.563-16.578,10.218-19.681,19.979
		c-1.984,6.237-1.367,11.947,1.693,15.658c3.623,4.396,9.797,4.789,13.156,4.629c5.557-0.263,10.905-2.259,15.466-5.771
		c3.394-2.608,8.061-6.667,9.378-11.749c0.597-2.301,0.181-4.008-1.17-4.807c-0.845-0.495-1.885-0.568-2.803-0.637
		c-0.206-0.014-0.4-0.027-0.587-0.047c-1.673-0.16-3.056-0.195-4.354-0.107c-3.946,0.262-6.429,1.339-7.382,3.201
		c-1.097,2.149,0.78,3.272,2.152,4.092c0.641,0.385,1.305,0.781,1.638,1.217c0.889,1.164-0.19,3.023-1.131,3.988
		c-1.286,1.313-2.922,2.291-4.861,2.904c-1.461,0.463-6.507,1.797-10.067-0.443c-3.353-2.11-3.175-6.659-2.772-9.184
		c0.628-3.934,2.165-7.484,4.44-10.269l-0.387-0.317l0.387,0.316c2.055-2.516,4.07-4.229,6.162-5.24
		c2.318-1.122,5.071-1.568,7.962-1.29c1.945,0.188,4.565,0.861,5.996,2.998c0.229,0.341,0.421,0.705,0.626,1.092
		c0.359,0.679,0.731,1.382,1.315,1.966c1.229,1.229,3.069,0.5,3.854,0.188c2.255-0.897,2.553-3.56,1.848-5.798
		C199.248,203.77,197.491,201.755,195.014,200.358z"/>
	
		<linearGradient id="XMLID_44_" gradientUnits="userSpaceOnUse" x1="352.1504" y1="401.8721" x2="329.5183" y2="475.8033" gradientTransform="matrix(1 -0.0016 0.0016 1 -0.2427 -194.2114)">
		<stop  offset="0" style="stop-color:#F7FFFF"/>
		<stop  offset="0.1124" style="stop-color:#D9E8ED"/>
		<stop  offset="1" style="stop-color:#1C86EE"/>
	</linearGradient>
	<path fill="url(#XMLID_44_)" d="M345.693,217.498c1.02-2.479,4.474-3.505,6.881-2.754c2.521,0.785,4.423,4.341,7.341,2.613
		c0.914-0.539,1.921-1.75,1.442-2.873c-0.463-1.078-1.825-1.67-2.83-2.088c-5.125-2.152-10.988-2.049-15.905,0.578
		c-1.897,1.017-3.654,2.452-4.582,4.439c-1.126,2.415-0.497,4.521,1.59,6.094c1.83,1.379,4.009,2.012,6.197,2.563
		c0.88,0.224,1.848,0.539,2.717,1.006c3.412-0.387,6.507-0.962,9.283-1.738c-1.899-1.652-5.162-2.181-7.567-2.834
		C348.048,221.906,344.48,220.445,345.693,217.498z"/>
	
		<linearGradient id="XMLID_45_" gradientUnits="userSpaceOnUse" x1="317.1084" y1="390.5186" x2="294.4502" y2="464.5356" gradientTransform="matrix(1 -0.0016 0.0016 1 -0.2427 -194.2114)">
		<stop  offset="0" style="stop-color:#F7FFFF"/>
		<stop  offset="0.1124" style="stop-color:#D9E8ED"/>
		<stop  offset="1" style="stop-color:#1C86EE"/>
	</linearGradient>
	<path fill="url(#XMLID_45_)" d="M331.95,212.342c-2.112-1.515-5.112-1.507-7.591-1.279c-1.381,0.127-2.752,0.396-4.067,0.834
		c-1.46,0.488-2.856,0.998-4.426,0.974c-1.211-0.021-2.237-0.769-3.334-1.185c-1.402-0.537-2.886-0.867-4.386-0.972
		c-1.364-0.096-2.768-0.021-4.097,0.325c-1.438,0.371-2.782,1.055-4.278,1.197c-2.729,0.26-5.84-1.34-8.355,0.211
		c-2.471,1.521-2.998,4.566-3.85,7.121c-0.273,0.824-0.545,1.646-0.818,2.469c2.085,0.355,4.143,0.695,6.182,1.02
		c0.291-0.701,0.605-1.39,0.979-2.049c1.844-3.267,6.142-5.641,9.893-4.179c1.959,0.764,2.7,2.762,2.336,4.75
		c-0.201,1.108-0.611,2.187-0.994,3.255c2.227,0.292,4.414,0.559,6.563,0.801c0.206-0.635,0.414-1.268,0.613-1.902
		c0.813-2.572,1.968-4.89,4.32-6.366c1.93-1.214,4.604-1.738,6.721-0.687c2.771,1.377,2.068,4.551,1.314,6.938
		c-0.328,1.039-0.658,2.075-0.99,3.106c2.381,0.162,4.696,0.285,6.94,0.362c0.606-1.896,1.194-3.797,1.813-5.688
		C333.292,218.775,334.764,214.365,331.95,212.342z"/>
	
		<linearGradient id="XMLID_46_" gradientUnits="userSpaceOnUse" x1="287.7227" y1="381.0137" x2="264.7614" y2="456.0205" gradientTransform="matrix(1 -0.0016 0.0016 1 -0.2427 -194.2114)">
		<stop  offset="0" style="stop-color:#F7FFFF"/>
		<stop  offset="0.1124" style="stop-color:#D9E8ED"/>
		<stop  offset="1" style="stop-color:#1C86EE"/>
	</linearGradient>
	<path fill="url(#XMLID_46_)" d="M286.225,202.506c-0.387-1.25-1.774-1.41-2.896-1.242c-2.331,0.354-3.622,2.277-4.401,4.334
		c-1.768,4.635-3.216,9.426-4.717,14.17c2.229,0.424,4.438,0.838,6.622,1.232c1.66-5.021,3.325-10.04,4.985-15.063
		C286.175,204.871,286.572,203.63,286.225,202.506z"/>
	
		<linearGradient id="XMLID_47_" gradientUnits="userSpaceOnUse" x1="263.6563" y1="374.3867" x2="241.1457" y2="447.9211" gradientTransform="matrix(1 -0.0016 0.0016 1 -0.2427 -194.2114)">
		<stop  offset="0" style="stop-color:#F7FFFF"/>
		<stop  offset="0.1124" style="stop-color:#D9E8ED"/>
		<stop  offset="1" style="stop-color:#1C86EE"/>
	</linearGradient>
	<path fill="url(#XMLID_47_)" d="M260.959,213.949c0.884-1.045,0.1-2.323-0.345-3.365c-0.47-1.098-0.765-2.352-0.433-3.525
		c0.732-2.59,4.102-2.604,4.983-4.985c0.964-2.6-3.578-2.58-4.992-2.271c-2.548,0.563-4.646,2.106-6.362,4.019
		c-1.815,2.017-3.067,4.646-5.179,6.383c-0.907,0.747-2.093,1.4-2.591,2.525c-0.17,0.387-0.206,0.769-0.175,1.147
		c4.053,0.901,8.073,1.778,12.05,2.617C258.989,215.703,260.102,214.961,260.959,213.949z"/>
	
		<linearGradient id="XMLID_48_" gradientUnits="userSpaceOnUse" x1="275.9443" y1="378.1533" x2="253.4364" y2="451.6787" gradientTransform="matrix(1 -0.0016 0.0016 1 -0.2427 -194.2114)">
		<stop  offset="0" style="stop-color:#F7FFFF"/>
		<stop  offset="0.1124" style="stop-color:#D9E8ED"/>
		<stop  offset="1" style="stop-color:#1C86EE"/>
	</linearGradient>
	<path fill="url(#XMLID_48_)" d="M270.32,213.559c-0.321-1.877-2.209-1.896-3.674-1.365c-1.979,0.721-3.017,2.029-3.707,3.998
		c-0.146,0.418-0.304,0.836-0.451,1.254c2.135,0.439,4.25,0.863,6.354,1.279c0.134-0.39,0.271-0.779,0.402-1.17
		C269.648,216.396,270.543,214.813,270.32,213.559z"/>
	
		<linearGradient id="XMLID_49_" gradientUnits="userSpaceOnUse" x1="276.5596" y1="377.6504" x2="253.3182" y2="453.5727" gradientTransform="matrix(1 -0.0016 0.0016 1 -0.2427 -194.2114)">
		<stop  offset="0" style="stop-color:#F7FFFF"/>
		<stop  offset="0.1124" style="stop-color:#D9E8ED"/>
		<stop  offset="1" style="stop-color:#1C86EE"/>
	</linearGradient>
	<path fill="url(#XMLID_49_)" d="M273.081,201.148c-2.376-1.583-7.599,2.393-4.195,4.004
		C271.061,206.611,275.652,202.857,273.081,201.148z"/>
	
		<linearGradient id="XMLID_50_" gradientUnits="userSpaceOnUse" x1="236.9277" y1="365.3828" x2="214.0403" y2="440.1483" gradientTransform="matrix(1 -0.0016 0.0016 1 -0.2427 -194.2114)">
		<stop  offset="0" style="stop-color:#F7FFFF"/>
		<stop  offset="0.1124" style="stop-color:#D9E8ED"/>
		<stop  offset="1" style="stop-color:#1C86EE"/>
	</linearGradient>
	<path fill="url(#XMLID_50_)" d="M220.757,206.754c4.118-2.408,11.373-3.141,14.933,0.704c1.596,1.719,1.947,4.933,4.979,4.026
		c2.279-0.68,2.979-2.535,2.508-4.772c-0.563-2.663-2.581-4.769-4.894-6.07c-4.682-2.636-10.549-2.271-15.553-0.853
		c-4.6,1.304-8.742,3.947-12.051,7.384c-1.205,1.257-2.307,2.62-3.287,4.063c2.852-0.219,5.713-0.366,8.573-0.424
		C217.34,209.206,218.945,207.814,220.757,206.754z"/>
	
		<linearGradient id="XMLID_51_" gradientUnits="userSpaceOnUse" x1="196.4858" y1="353.0273" x2="173.7346" y2="427.3483" gradientTransform="matrix(1 -0.0016 0.0016 1 -0.2427 -194.2114)">
		<stop  offset="0" style="stop-color:#F7FFFF"/>
		<stop  offset="0.1124" style="stop-color:#D9E8ED"/>
		<stop  offset="1" style="stop-color:#1C86EE"/>
	</linearGradient>
	<path fill="url(#XMLID_51_)" d="M178.143,206.43c2.533-1.227,5.443-1.605,8.228-1.338c2.413,0.232,4.957,1.115,6.364,3.217
		c0.653,0.978,1.035,2.141,1.878,2.98c0.905,0.906,2.284,0.488,3.316,0.078c2.088-0.832,2.137-3.338,1.555-5.184
		c-0.742-2.354-2.603-4.199-4.715-5.391c-4.68-2.634-10.543-2.271-15.548-0.853c-9.294,2.636-16.456,10.582-19.34,19.649
		c-0.134,0.429-0.255,0.864-0.373,1.306c2.804-0.869,5.726-1.728,8.744-2.556c0.805-2.366,1.985-4.608,3.56-6.538
		C173.564,209.657,175.625,207.645,178.143,206.43z"/>
</g>
<g id="Calque_8">
	<g>
		<g>
			
				<radialGradient id="XMLID_52_" cx="147.7085" cy="348.5166" r="52.7762" gradientTransform="matrix(1.0169 0.0102 0.0047 1.0111 4.6242 -193.2883)" gradientUnits="userSpaceOnUse">
				<stop  offset="0.118" style="stop-color:#1C86EE"/>
				<stop  offset="0.5169" style="stop-color:#80D1FF"/>
				<stop  offset="0.6036" style="stop-color:#5BB5F9"/>
				<stop  offset="0.7215" style="stop-color:#2E93F1"/>
				<stop  offset="0.7809" style="stop-color:#1C86EE"/>
			</radialGradient>
			<path fill="url(#XMLID_52_)" d="M173.665,170.965c-6.073,18.438-23.024,29.468-37.183,23.018
				c-14.01-6.38-18.025-26.629-9.83-43.751c7.479-15.64,22.729-23.224,34.717-18.086
				C173.459,137.33,179.202,154.149,173.665,170.965z"/>
			
				<linearGradient id="XMLID_53_" gradientUnits="userSpaceOnUse" x1="147.7441" y1="374.1729" x2="124.3015" y2="262.8594" gradientTransform="matrix(1.0119 0.009 0.0036 1.008 3.178 -192.6773)">
				<stop  offset="0" style="stop-color:#1C86EE"/>
				<stop  offset="0.118" style="stop-color:#1C86EE"/>
				<stop  offset="0.5169" style="stop-color:#7DCFFE"/>
				<stop  offset="0.5989" style="stop-color:#5BB5F8"/>
				<stop  offset="0.7199" style="stop-color:#2D93F1"/>
				<stop  offset="0.7809" style="stop-color:#1C86EE"/>
				<stop  offset="1" style="stop-color:#1C86EE"/>
			</linearGradient>
			<path fill="url(#XMLID_53_)" d="M173.629,170.978c-6.04,18.362-22.887,29.312-36.972,22.898
				c-13.939-6.345-18.009-26.494-9.925-43.582c7.394-15.659,22.594-23.29,34.586-18.148
				C173.411,137.334,179.153,154.18,173.629,170.978z"/>
			
				<linearGradient id="XMLID_54_" gradientUnits="userSpaceOnUse" x1="147.9409" y1="375.7422" x2="132.843" y2="264.589" gradientTransform="matrix(1.007 0.0077 0.0025 1.005 2.5764 -192.1149)">
				<stop  offset="0" style="stop-color:#1D86EE"/>
				<stop  offset="0.118" style="stop-color:#1D86EE"/>
				<stop  offset="0.5169" style="stop-color:#7ACCFE"/>
				<stop  offset="0.594" style="stop-color:#5BB5F9"/>
				<stop  offset="0.7182" style="stop-color:#2D93F1"/>
				<stop  offset="0.7809" style="stop-color:#1C86EE"/>
				<stop  offset="1" style="stop-color:#1C86EE"/>
			</linearGradient>
			<path fill="url(#XMLID_54_)" d="M173.593,170.991c-6.007,18.286-22.75,29.155-36.761,22.778
				c-13.868-6.31-17.993-26.359-10.02-43.412c7.308-15.678,22.458-23.357,34.455-18.211
				C173.363,137.338,179.104,154.211,173.593,170.991z"/>
			
				<linearGradient id="XMLID_55_" gradientUnits="userSpaceOnUse" x1="148.894" y1="377.998" x2="142.0136" y2="267.9479" gradientTransform="matrix(1.002 0.0064 0.0014 1.0019 1.1296 -192.3518)">
				<stop  offset="0" style="stop-color:#1D87EE"/>
				<stop  offset="0.118" style="stop-color:#1D87EE"/>
				<stop  offset="0.5169" style="stop-color:#77CAFD"/>
				<stop  offset="0.5887" style="stop-color:#5BB5F8"/>
				<stop  offset="0.7165" style="stop-color:#2D93F1"/>
				<stop  offset="0.7809" style="stop-color:#1C86EE"/>
				<stop  offset="1" style="stop-color:#1C86EE"/>
			</linearGradient>
			<path fill="url(#XMLID_55_)" d="M173.558,171.004c-5.975,18.209-22.613,28.999-36.55,22.658
				c-13.797-6.276-17.977-26.225-10.115-43.243c7.222-15.697,22.323-23.424,34.323-18.273
				C173.314,137.342,179.055,154.242,173.558,171.004z"/>
			
				<linearGradient id="XMLID_56_" gradientUnits="userSpaceOnUse" x1="149.7539" y1="380.1016" x2="150.8477" y2="272.0876" gradientTransform="matrix(0.9971 0.0051 2.000000e-004 0.9988 -0.2735 -192.5862)">
				<stop  offset="0" style="stop-color:#1E87EE"/>
				<stop  offset="0.118" style="stop-color:#1D87EE"/>
				<stop  offset="0.5169" style="stop-color:#74C8FD"/>
				<stop  offset="0.5831" style="stop-color:#5BB5F9"/>
				<stop  offset="0.7146" style="stop-color:#2D93F1"/>
				<stop  offset="0.7809" style="stop-color:#1C86EE"/>
				<stop  offset="1" style="stop-color:#1C86EE"/>
			</linearGradient>
			<path fill="url(#XMLID_56_)" d="M173.522,171.018c-5.942,18.133-22.476,28.843-36.339,22.538
				c-13.726-6.241-17.96-26.09-10.209-43.073c7.135-15.717,22.187-23.491,34.191-18.336
				C173.267,137.346,179.006,154.272,173.522,171.018z"/>
			
				<linearGradient id="XMLID_57_" gradientUnits="userSpaceOnUse" x1="150.5835" y1="382.0322" x2="159.292" y2="276.9577" gradientTransform="matrix(0.9921 0.0038 -9.000000e-004 0.9957 -1.7202 -192.8226)">
				<stop  offset="0" style="stop-color:#1E87EE"/>
				<stop  offset="0.118" style="stop-color:#1E87EE"/>
				<stop  offset="0.5169" style="stop-color:#71C5FC"/>
				<stop  offset="0.5772" style="stop-color:#5BB5F8"/>
				<stop  offset="0.7126" style="stop-color:#2D93F1"/>
				<stop  offset="0.7809" style="stop-color:#1C86EE"/>
				<stop  offset="1" style="stop-color:#1C86EE"/>
			</linearGradient>
			<path fill="url(#XMLID_57_)" d="M173.487,171.031c-5.909,18.057-22.339,28.687-36.128,22.418
				c-13.655-6.206-17.944-25.955-10.304-42.903c7.049-15.736,22.052-23.557,34.06-18.398
				C173.218,137.35,178.957,154.303,173.487,171.031z"/>
			
				<linearGradient id="XMLID_58_" gradientUnits="userSpaceOnUse" x1="150.5122" y1="382.9463" x2="166.3651" y2="281.6582" gradientTransform="matrix(0.9872 0.0025 -0.002 0.9927 -2.3233 -192.2593)">
				<stop  offset="0" style="stop-color:#1E87EE"/>
				<stop  offset="0.118" style="stop-color:#1E87EE"/>
				<stop  offset="0.5169" style="stop-color:#6EC3FC"/>
				<stop  offset="0.5686" style="stop-color:#5CB5F9"/>
				<stop  offset="0.7098" style="stop-color:#2E93F1"/>
				<stop  offset="0.7809" style="stop-color:#1D86EE"/>
				<stop  offset="1" style="stop-color:#1C86EE"/>
			</linearGradient>
			<path fill="url(#XMLID_58_)" d="M173.451,171.044c-5.876,17.98-22.202,28.53-35.917,22.298
				c-13.584-6.171-17.928-25.82-10.399-42.733c6.963-15.755,21.917-23.624,33.929-18.46
				C173.17,137.354,178.908,154.334,173.451,171.044z"/>
			
				<linearGradient id="XMLID_59_" gradientUnits="userSpaceOnUse" x1="151.2979" y1="383.6377" x2="173.7307" y2="286.88" gradientTransform="matrix(0.9822 0.0013 -0.0031 0.9896 -3.77 -191.6517)">
				<stop  offset="0" style="stop-color:#1F88EE"/>
				<stop  offset="0.118" style="stop-color:#1E87EE"/>
				<stop  offset="0.5169" style="stop-color:#6BC1FB"/>
				<stop  offset="0.5616" style="stop-color:#5CB5F8"/>
				<stop  offset="0.7074" style="stop-color:#2E93F1"/>
				<stop  offset="0.7809" style="stop-color:#1D86EE"/>
				<stop  offset="1" style="stop-color:#1C86EE"/>
			</linearGradient>
			<path fill="url(#XMLID_59_)" d="M173.416,171.057c-5.844,17.904-22.065,28.374-35.707,22.178
				c-13.513-6.136-17.912-25.685-10.494-42.564c6.877-15.774,21.781-23.69,33.797-18.522
				C173.122,137.358,178.859,154.365,173.416,171.057z"/>
			
				<linearGradient id="XMLID_60_" gradientUnits="userSpaceOnUse" x1="152.1089" y1="385" x2="180.4698" y2="293.4412" gradientTransform="matrix(0.9772 0 -0.0042 0.9865 -5.2167 -191.8881)">
				<stop  offset="0" style="stop-color:#1F88EE"/>
				<stop  offset="0.118" style="stop-color:#1F88EE"/>
				<stop  offset="0.5169" style="stop-color:#68BEFB"/>
				<stop  offset="0.5541" style="stop-color:#5CB5F9"/>
				<stop  offset="0.7049" style="stop-color:#2E94F1"/>
				<stop  offset="0.7809" style="stop-color:#1D87EE"/>
				<stop  offset="1" style="stop-color:#1C86EE"/>
			</linearGradient>
			<path fill="url(#XMLID_60_)" d="M173.38,171.07c-5.811,17.828-21.928,28.218-35.495,22.058
				c-13.442-6.102-17.896-25.55-10.589-42.395c6.792-15.794,21.646-23.758,33.666-18.585
				C173.074,137.362,178.81,154.396,173.38,171.07z"/>
			
				<linearGradient id="XMLID_61_" gradientUnits="userSpaceOnUse" x1="152.0825" y1="386.168" x2="185.6536" y2="300.3651" gradientTransform="matrix(0.9723 -0.0013 -0.0053 0.9834 -5.8197 -192.123)">
				<stop  offset="0" style="stop-color:#1F88EE"/>
				<stop  offset="0.118" style="stop-color:#1F88EE"/>
				<stop  offset="0.5169" style="stop-color:#65BCFA"/>
				<stop  offset="0.546" style="stop-color:#5CB5F8"/>
				<stop  offset="0.7022" style="stop-color:#2E94F1"/>
				<stop  offset="0.7809" style="stop-color:#1D87EE"/>
				<stop  offset="1" style="stop-color:#1C86EE"/>
			</linearGradient>
			<path fill="url(#XMLID_61_)" d="M173.345,171.083c-5.778,17.751-21.791,28.062-35.284,21.938
				c-13.371-6.067-17.879-25.416-10.684-42.225c6.706-15.813,21.51-23.824,33.535-18.647
				C173.026,137.367,178.761,154.426,173.345,171.083z"/>
			
				<linearGradient id="XMLID_62_" gradientUnits="userSpaceOnUse" x1="153.0029" y1="387.1455" x2="191.0197" y2="307.5345" gradientTransform="matrix(0.9673 -0.0026 -0.0064 0.9803 -7.2665 -192.3584)">
				<stop  offset="0" style="stop-color:#2088EE"/>
				<stop  offset="0.118" style="stop-color:#2088EE"/>
				<stop  offset="0.5169" style="stop-color:#62BAFA"/>
				<stop  offset="0.5373" style="stop-color:#5CB5F9"/>
				<stop  offset="0.6993" style="stop-color:#2E94F1"/>
				<stop  offset="0.7809" style="stop-color:#1D87EE"/>
				<stop  offset="1" style="stop-color:#1C86EE"/>
			</linearGradient>
			<path fill="url(#XMLID_62_)" d="M173.309,171.097c-5.746,17.675-21.654,27.905-35.073,21.818
				c-13.3-6.032-17.864-25.281-10.778-42.055c6.619-15.833,21.375-23.891,33.403-18.71
				C172.978,137.371,178.712,154.457,173.309,171.097z"/>
			
				<linearGradient id="XMLID_63_" gradientUnits="userSpaceOnUse" x1="153.1177" y1="387.0771" x2="194.7797" y2="313.9872" gradientTransform="matrix(0.9624 -0.0039 -0.0075 0.9773 -7.87 -191.796)">
				<stop  offset="0" style="stop-color:#2088EE"/>
				<stop  offset="0.118" style="stop-color:#2088EE"/>
				<stop  offset="0.5169" style="stop-color:#5FB7F9"/>
				<stop  offset="0.5279" style="stop-color:#5CB5F8"/>
				<stop  offset="0.6962" style="stop-color:#2E94F1"/>
				<stop  offset="0.7809" style="stop-color:#1D87EE"/>
				<stop  offset="1" style="stop-color:#1C86EE"/>
			</linearGradient>
			<path fill="url(#XMLID_63_)" d="M173.273,171.11c-5.713,17.599-21.517,27.749-34.862,21.698
				c-13.229-5.998-17.847-25.146-10.873-41.886c6.533-15.852,21.239-23.958,33.271-18.772
				C172.93,137.375,178.663,154.488,173.273,171.11z"/>
			
				<linearGradient id="XMLID_64_" gradientUnits="userSpaceOnUse" x1="154.2466" y1="387.6943" x2="198.7525" y2="321.3156" gradientTransform="matrix(0.9574 -0.0052 -0.0086 0.9742 -9.3167 -192.0324)">
				<stop  offset="0" style="stop-color:#2189EE"/>
				<stop  offset="0.118" style="stop-color:#2088EE"/>
				<stop  offset="0.5169" style="stop-color:#5CB5F8"/>
				<stop  offset="0.5176" style="stop-color:#5CB5F8"/>
				<stop  offset="0.6927" style="stop-color:#2E94F1"/>
				<stop  offset="0.7809" style="stop-color:#1D87EE"/>
				<stop  offset="1" style="stop-color:#1C86EE"/>
			</linearGradient>
			<path fill="url(#XMLID_64_)" d="M173.238,171.123c-5.681,17.523-21.38,27.593-34.651,21.578
				c-13.158-5.962-17.831-25.011-10.968-41.716c6.447-15.871,21.104-24.024,33.14-18.834
				C172.881,137.378,178.614,154.519,173.238,171.123z"/>
			
				<linearGradient id="XMLID_65_" gradientUnits="userSpaceOnUse" x1="155.5146" y1="388.1504" x2="202.0645" y2="328.5667" gradientTransform="matrix(0.9524 -0.0065 -0.0097 0.9711 -10.763 -192.2664)">
				<stop  offset="0" style="stop-color:#2189EE"/>
				<stop  offset="0.118" style="stop-color:#2189EE"/>
				<stop  offset="0.5169" style="stop-color:#59B3F8"/>
				<stop  offset="0.689" style="stop-color:#2E94F1"/>
				<stop  offset="0.7809" style="stop-color:#1D87EE"/>
				<stop  offset="1" style="stop-color:#1C86EE"/>
			</linearGradient>
			<path fill="url(#XMLID_65_)" d="M173.203,171.136c-5.647,17.446-21.243,27.438-34.44,21.458
				c-13.087-5.928-17.815-24.876-11.063-41.547c6.361-15.89,20.968-24.091,33.009-18.897
				C172.833,137.383,178.565,154.549,173.203,171.136z"/>
			
				<linearGradient id="XMLID_66_" gradientUnits="userSpaceOnUse" x1="156.0215" y1="387.5674" x2="203.8433" y2="334.7467" gradientTransform="matrix(0.9475 -0.0077 -0.0108 0.968 -11.3655 -191.6588)">
				<stop  offset="0" style="stop-color:#2189EE"/>
				<stop  offset="0.118" style="stop-color:#2189EE"/>
				<stop  offset="0.5169" style="stop-color:#56B0F7"/>
				<stop  offset="0.6849" style="stop-color:#2E94F1"/>
				<stop  offset="0.7809" style="stop-color:#1D87EE"/>
				<stop  offset="1" style="stop-color:#1C86EE"/>
			</linearGradient>
			<path fill="url(#XMLID_66_)" d="M173.167,171.149c-5.615,17.37-21.105,27.28-34.229,21.338
				c-13.016-5.894-17.799-24.741-11.158-41.377c6.275-15.91,20.833-24.158,32.877-18.959
				C172.785,137.387,178.516,154.58,173.167,171.149z"/>
			
				<linearGradient id="XMLID_67_" gradientUnits="userSpaceOnUse" x1="157.605" y1="386.8857" x2="205.9639" y2="340.6957" gradientTransform="matrix(0.9425 -0.009 -0.0119 0.965 -12.8123 -191.0964)">
				<stop  offset="0" style="stop-color:#2289EE"/>
				<stop  offset="0.118" style="stop-color:#2189EE"/>
				<stop  offset="0.5169" style="stop-color:#53AEF7"/>
				<stop  offset="0.6803" style="stop-color:#2E94F1"/>
				<stop  offset="0.7809" style="stop-color:#1D87EE"/>
				<stop  offset="1" style="stop-color:#1C86EE"/>
			</linearGradient>
			<path fill="url(#XMLID_67_)" d="M173.131,171.163c-5.582,17.294-20.968,27.124-34.018,21.218
				c-12.944-5.858-17.783-24.606-11.252-41.208c6.189-15.929,20.698-24.225,32.746-19.021
				C172.737,137.391,178.467,154.611,173.131,171.163z"/>
			
				<linearGradient id="XMLID_68_" gradientUnits="userSpaceOnUse" x1="158.4619" y1="386.958" x2="206.6836" y2="347.1672" gradientTransform="matrix(0.9376 -0.0103 -0.013 0.9619 -13.4163 -191.3318)">
				<stop  offset="0" style="stop-color:#228AEF"/>
				<stop  offset="0.118" style="stop-color:#2289EF"/>
				<stop  offset="0.5169" style="stop-color:#4FACF6"/>
				<stop  offset="0.6716" style="stop-color:#2F94F1"/>
				<stop  offset="0.7809" style="stop-color:#1E87EE"/>
				<stop  offset="1" style="stop-color:#1C86EE"/>
			</linearGradient>
			<path fill="url(#XMLID_68_)" d="M173.096,171.176c-5.55,17.217-20.832,26.968-33.807,21.097
				c-12.874-5.824-17.767-24.472-11.347-41.038c6.103-15.949,20.562-24.292,32.614-19.084
				C172.689,137.395,178.418,154.642,173.096,171.176z"/>
			
				<linearGradient id="XMLID_69_" gradientUnits="userSpaceOnUse" x1="160.4146" y1="386.959" x2="207.8983" y2="353.2505" gradientTransform="matrix(0.9326 -0.0116 -0.0141 0.9588 -14.8625 -191.5682)">
				<stop  offset="0" style="stop-color:#238AEF"/>
				<stop  offset="0.118" style="stop-color:#2289EF"/>
				<stop  offset="0.5169" style="stop-color:#4CAAF6"/>
				<stop  offset="0.6656" style="stop-color:#2F94F1"/>
				<stop  offset="0.7809" style="stop-color:#1E87EE"/>
				<stop  offset="1" style="stop-color:#1C86EE"/>
			</linearGradient>
			<path fill="url(#XMLID_69_)" d="M173.061,171.189c-5.517,17.141-20.695,26.812-33.596,20.977
				c-12.803-5.789-17.75-24.337-11.442-40.868c6.017-15.968,20.427-24.358,32.483-19.146
				C172.641,137.399,178.37,154.672,173.061,171.189z"/>
			
				<linearGradient id="XMLID_70_" gradientUnits="userSpaceOnUse" x1="162.5522" y1="386.9033" x2="208.7663" y2="358.9007" gradientTransform="matrix(0.9276 -0.0129 -0.0152 0.9557 -16.3092 -191.8031)">
				<stop  offset="0" style="stop-color:#238AEF"/>
				<stop  offset="0.118" style="stop-color:#2289EF"/>
				<stop  offset="0.5169" style="stop-color:#49A7F5"/>
				<stop  offset="0.6587" style="stop-color:#2F94F1"/>
				<stop  offset="0.7809" style="stop-color:#1E87EE"/>
				<stop  offset="1" style="stop-color:#1C86EE"/>
			</linearGradient>
			<path fill="url(#XMLID_70_)" d="M173.025,171.203c-5.484,17.065-20.558,26.655-33.385,20.857
				c-12.731-5.754-17.734-24.202-11.537-40.698c5.931-15.987,20.292-24.425,32.352-19.208
				C172.593,137.403,178.32,154.703,173.025,171.203z"/>
			
				<linearGradient id="XMLID_71_" gradientUnits="userSpaceOnUse" x1="163.9199" y1="385.918" x2="208.4154" y2="363.1921" gradientTransform="matrix(0.9227 -0.0142 -0.0163 0.9527 -16.9128 -191.2403)">
				<stop  offset="0" style="stop-color:#238AEF"/>
				<stop  offset="0.118" style="stop-color:#238AEF"/>
				<stop  offset="0.5169" style="stop-color:#46A5F5"/>
				<stop  offset="0.6509" style="stop-color:#2F94F1"/>
				<stop  offset="0.7809" style="stop-color:#1E87EE"/>
				<stop  offset="1" style="stop-color:#1C86EE"/>
			</linearGradient>
			<path fill="url(#XMLID_71_)" d="M172.989,171.216c-5.451,16.988-20.42,26.499-33.174,20.737
				c-12.661-5.72-17.718-24.067-11.632-40.529c5.845-16.006,20.156-24.492,32.22-19.271
				C172.545,137.407,178.271,154.734,172.989,171.216z"/>
			
				<linearGradient id="XMLID_72_" gradientUnits="userSpaceOnUse" x1="166.3784" y1="384.8955" x2="208.7956" y2="366.9797" gradientTransform="matrix(0.9177 -0.0154 -0.0174 0.9496 -18.359 -190.6317)">
				<stop  offset="0" style="stop-color:#248BEF"/>
				<stop  offset="0.118" style="stop-color:#238AEF"/>
				<stop  offset="0.5169" style="stop-color:#43A3F4"/>
				<stop  offset="0.6422" style="stop-color:#2F94F1"/>
				<stop  offset="0.7809" style="stop-color:#1E87EE"/>
				<stop  offset="1" style="stop-color:#1C86EE"/>
			</linearGradient>
			<path fill="url(#XMLID_72_)" d="M172.954,171.229c-5.419,16.912-20.284,26.343-32.963,20.617
				c-12.589-5.685-17.702-23.933-11.727-40.359c5.759-16.026,20.021-24.559,32.089-19.333
				C172.497,137.411,178.223,154.765,172.954,171.229z"/>
			
				<linearGradient id="XMLID_73_" gradientUnits="userSpaceOnUse" x1="168.0645" y1="384.7578" x2="208.1143" y2="371.1703" gradientTransform="matrix(0.9128 -0.0167 -0.0185 0.9465 -18.9621 -190.8685)">
				<stop  offset="0" style="stop-color:#248BEF"/>
				<stop  offset="0.118" style="stop-color:#238AEF"/>
				<stop  offset="0.5169" style="stop-color:#40A0F3"/>
				<stop  offset="0.6318" style="stop-color:#2F94F1"/>
				<stop  offset="0.7809" style="stop-color:#1E87EE"/>
				<stop  offset="1" style="stop-color:#1C86EE"/>
			</linearGradient>
			<path fill="url(#XMLID_73_)" d="M172.918,171.242c-5.386,16.836-20.146,26.187-32.752,20.497
				c-12.518-5.65-17.686-23.797-11.821-40.19c5.673-16.045,19.885-24.625,31.958-19.396
				C172.448,137.415,178.174,154.795,172.918,171.242z"/>
			
				<linearGradient id="XMLID_74_" gradientUnits="userSpaceOnUse" x1="170.8232" y1="384.6436" x2="208.2939" y2="374.8952" gradientTransform="matrix(0.9078 -0.018 -0.0196 0.9434 -20.4088 -191.1045)">
				<stop  offset="0" style="stop-color:#258BEF"/>
				<stop  offset="0.118" style="stop-color:#248AEF"/>
				<stop  offset="0.5169" style="stop-color:#3D9EF3"/>
				<stop  offset="0.6196" style="stop-color:#2F94F1"/>
				<stop  offset="0.7809" style="stop-color:#1E87EE"/>
				<stop  offset="1" style="stop-color:#1C86EE"/>
			</linearGradient>
			<path fill="url(#XMLID_74_)" d="M172.883,171.255c-5.354,16.76-20.009,26.03-32.541,20.377
				c-12.448-5.615-17.67-23.663-11.916-40.02c5.587-16.064,19.75-24.692,31.826-19.458
				C172.4,137.419,178.125,154.826,172.883,171.255z"/>
			
				<linearGradient id="XMLID_75_" gradientUnits="userSpaceOnUse" x1="172.7466" y1="384.5195" x2="207.4841" y2="378.1284" gradientTransform="matrix(0.9029 -0.0193 -0.0207 0.9403 -21.0128 -191.3399)">
				<stop  offset="0" style="stop-color:#258BEF"/>
				<stop  offset="0.118" style="stop-color:#248AEF"/>
				<stop  offset="0.5169" style="stop-color:#3A9CF2"/>
				<stop  offset="0.6049" style="stop-color:#2F94F0"/>
				<stop  offset="0.7809" style="stop-color:#1E87EE"/>
				<stop  offset="1" style="stop-color:#1C86EE"/>
			</linearGradient>
			<path fill="url(#XMLID_75_)" d="M172.847,171.269c-5.321,16.684-19.872,25.874-32.33,20.257
				c-12.376-5.58-17.653-23.528-12.011-39.851c5.501-16.083,19.614-24.758,31.694-19.52
				C172.352,137.423,178.076,154.857,172.847,171.269z"/>
			
				<linearGradient id="XMLID_76_" gradientUnits="userSpaceOnUse" x1="175.7002" y1="383.5332" x2="207.607" y2="380.029" gradientTransform="matrix(0.8979 -0.0206 -0.0218 0.9373 -22.4586 -190.7766)">
				<stop  offset="0" style="stop-color:#258BEF"/>
				<stop  offset="0.118" style="stop-color:#258BEF"/>
				<stop  offset="0.5169" style="stop-color:#3799F2"/>
				<stop  offset="0.5869" style="stop-color:#2F94F1"/>
				<stop  offset="0.7809" style="stop-color:#1E88EE"/>
				<stop  offset="1" style="stop-color:#1C86EE"/>
			</linearGradient>
			<path fill="url(#XMLID_76_)" d="M172.812,171.282c-5.288,16.607-19.735,25.718-32.119,20.137
				c-12.306-5.546-17.638-23.393-12.106-39.681c5.415-16.103,19.479-24.826,31.563-19.583
				C172.304,137.427,178.027,154.888,172.812,171.282z"/>
			
				<linearGradient id="XMLID_77_" gradientUnits="userSpaceOnUse" x1="178.7642" y1="383.4414" x2="207.7752" y2="382.3727" gradientTransform="matrix(0.8929 -0.0219 -0.0229 0.9342 -23.9053 -191.0129)">
				<stop  offset="0" style="stop-color:#268CEF"/>
				<stop  offset="0.118" style="stop-color:#258BEF"/>
				<stop  offset="0.5169" style="stop-color:#3497F1"/>
				<stop  offset="0.5645" style="stop-color:#2F94F0"/>
				<stop  offset="0.7809" style="stop-color:#1E88EE"/>
				<stop  offset="1" style="stop-color:#1C86EE"/>
			</linearGradient>
			<path fill="url(#XMLID_77_)" d="M172.776,171.295c-5.255,16.531-19.598,25.562-31.908,20.017
				c-12.234-5.511-17.622-23.258-12.201-39.512c5.329-16.122,19.343-24.892,31.432-19.645
				C172.256,137.431,177.978,154.918,172.776,171.295z"/>
			
				<linearGradient id="XMLID_78_" gradientUnits="userSpaceOnUse" x1="180.9126" y1="382.3936" x2="206.9879" y2="383.326" gradientTransform="matrix(0.888 -0.0231 -0.024 0.9311 -24.5078 -190.4053)">
				<stop  offset="0" style="stop-color:#268CEF"/>
				<stop  offset="0.118" style="stop-color:#258BEF"/>
				<stop  offset="0.5169" style="stop-color:#3195F1"/>
				<stop  offset="0.5239" style="stop-color:#3095F1"/>
				<stop  offset="0.7809" style="stop-color:#1F88EE"/>
				<stop  offset="1" style="stop-color:#1C86EE"/>
			</linearGradient>
			<path fill="url(#XMLID_78_)" d="M172.741,171.308c-5.223,16.455-19.461,25.405-31.697,19.897
				c-12.163-5.476-17.605-23.124-12.295-39.342c5.243-16.142,19.208-24.959,31.3-19.708
				C172.208,137.436,177.929,154.949,172.741,171.308z"/>
			
				<linearGradient id="XMLID_79_" gradientUnits="userSpaceOnUse" x1="184.1323" y1="382.2773" x2="207.253" y2="384.7914" gradientTransform="matrix(0.883 -0.0244 -0.0251 0.928 -25.9546 -190.6402)">
				<stop  offset="0" style="stop-color:#268CEF"/>
				<stop  offset="0.118" style="stop-color:#268BEF"/>
				<stop  offset="0.5169" style="stop-color:#2E92F0"/>
				<stop  offset="0.7809" style="stop-color:#1F88EE"/>
				<stop  offset="1" style="stop-color:#1C86EE"/>
			</linearGradient>
			<path fill="url(#XMLID_79_)" d="M172.705,171.321c-5.19,16.378-19.324,25.249-31.486,19.777
				c-12.092-5.441-17.589-22.988-12.391-39.172c5.157-16.161,19.073-25.025,31.169-19.77
				C172.16,137.439,177.88,154.98,172.705,171.321z"/>
			
				<linearGradient id="XMLID_80_" gradientUnits="userSpaceOnUse" x1="186.4248" y1="381.1992" x2="206.5794" y2="384.8848" gradientTransform="matrix(0.8781 -0.0257 -0.0262 0.925 -26.5581 -190.0764)">
				<stop  offset="0" style="stop-color:#278CEF"/>
				<stop  offset="0.118" style="stop-color:#268BEF"/>
				<stop  offset="0.5169" style="stop-color:#2B90F0"/>
				<stop  offset="0.7809" style="stop-color:#1F88EE"/>
				<stop  offset="1" style="stop-color:#1C86EE"/>
			</linearGradient>
			<path fill="url(#XMLID_80_)" d="M172.669,171.334c-5.157,16.302-19.187,25.093-31.275,19.657
				c-12.021-5.406-17.573-22.854-12.485-39.002c5.071-16.18,18.937-25.092,31.037-19.832
				C172.112,137.443,177.831,155.011,172.669,171.334z"/>
			
				<linearGradient id="XMLID_81_" gradientUnits="userSpaceOnUse" x1="189.8101" y1="381.0098" x2="206.9989" y2="385.4618" gradientTransform="matrix(0.8731 -0.027 -0.0273 0.9219 -28.0053 -190.3133)">
				<stop  offset="0" style="stop-color:#278DEF"/>
				<stop  offset="0.118" style="stop-color:#268CEF"/>
				<stop  offset="0.5169" style="stop-color:#288EEF"/>
				<stop  offset="0.7809" style="stop-color:#1F88EE"/>
				<stop  offset="1" style="stop-color:#1C86EE"/>
			</linearGradient>
			<path fill="url(#XMLID_81_)" d="M172.634,171.348c-5.125,16.226-19.05,24.937-31.064,19.537
				c-11.95-5.372-17.557-22.719-12.58-38.833c4.985-16.199,18.801-25.159,30.906-19.895
				C172.063,137.447,177.782,155.042,172.634,171.348z"/>
			
				<linearGradient id="XMLID_82_" gradientUnits="userSpaceOnUse" x1="193.3022" y1="380.7695" x2="207.5314" y2="385.5799" gradientTransform="matrix(0.8681 -0.0283 -0.0284 0.9188 -29.452 -190.5492)">
				<stop  offset="0" style="stop-color:#288DEF"/>
				<stop  offset="0.118" style="stop-color:#278CEF"/>
				<stop  offset="0.5169" style="stop-color:#258BEF"/>
				<stop  offset="0.7809" style="stop-color:#1F88EE"/>
				<stop  offset="1" style="stop-color:#1C86EE"/>
			</linearGradient>
			<path fill="url(#XMLID_82_)" d="M172.599,171.361c-5.092,16.149-18.913,24.78-30.853,19.417
				c-11.879-5.337-17.541-22.584-12.675-38.664c4.899-16.219,18.666-25.226,30.774-19.957
				C172.016,137.452,177.733,155.072,172.599,171.361z"/>
			
				<linearGradient id="XMLID_83_" gradientUnits="userSpaceOnUse" x1="196.894" y1="380.4717" x2="208.1796" y2="385.2241" gradientTransform="matrix(0.8632 -0.0296 -0.0296 0.9157 -30.8542 -190.7841)">
				<stop  offset="0" style="stop-color:#288DEF"/>
				<stop  offset="1" style="stop-color:#1C86EE"/>
			</linearGradient>
			<path fill="url(#XMLID_83_)" d="M172.563,171.374c-5.059,16.073-18.776,24.624-30.642,19.297
				c-11.808-5.302-17.524-22.449-12.77-38.494c4.813-16.238,18.531-25.292,30.643-20.019
				C171.967,137.456,177.684,155.103,172.563,171.374z"/>
		</g>
	</g>
	<g>
		
			<linearGradient id="bord_x5F_01_1_" gradientUnits="userSpaceOnUse" x1="128.1006" y1="345.5605" x2="167.9155" y2="362.3145" gradientTransform="matrix(1.014 -0.0058 -0.0058 1.0243 3.555 -199.5085)">
			<stop  offset="0" style="stop-color:#F5FFFD"/>
			<stop  offset="0.103" style="stop-color:#EFFCFD"/>
			<stop  offset="0.2416" style="stop-color:#DEF2FB"/>
			<stop  offset="0.4004" style="stop-color:#C2E2F9"/>
			<stop  offset="0.5743" style="stop-color:#9ACCF7"/>
			<stop  offset="0.7604" style="stop-color:#68B0F3"/>
			<stop  offset="0.954" style="stop-color:#2C8FEF"/>
			<stop  offset="1" style="stop-color:#1C86EE"/>
		</linearGradient>
		<path id="bord_x5F_01_2_" display="none" fill="url(#bord_x5F_01_1_)" d="M171.564,170.625
			c-5.232,16.208-19.158,24.638-30.424,18.449c-10.767-5.915-14.442-22.777-8.834-37.359c5.389-14.025,17.75-21.583,28.169-17.198
			C171.339,139.092,176.58,155.083,171.564,170.625z"/>
		<g>
			
				<linearGradient id="XMLID_1_" gradientUnits="userSpaceOnUse" x1="160.2134" y1="363.3564" x2="170.5038" y2="367.6898" gradientTransform="matrix(0.9353 -0.0269 -0.0269 0.9832 -11.8253 -198.981)">
				<stop  offset="0" style="stop-color:#288DEF"/>
				<stop  offset="1" style="stop-color:#1C86EE"/>
			</linearGradient>
			<path fill="url(#XMLID_1_)" d="M173.615,170.884c-5.874,18.025-22.195,28.817-35.105,23.022c-12.847-5.768-16.046-25.47-8-42.362
				c7.285-15.292,20.634-23.82,31.407-19.127C172.733,137.126,179.279,153.621,173.615,170.884z"/>
			
				<linearGradient id="XMLID_2_" gradientUnits="userSpaceOnUse" x1="159.6836" y1="363.0547" x2="171.365" y2="368.0372" gradientTransform="matrix(0.9373 -0.0259 -0.0259 0.9833 -12.0883 -199.0828)">
				<stop  offset="0" style="stop-color:#2F91EF"/>
				<stop  offset="0.0169" style="stop-color:#2F91EF"/>
				<stop  offset="0.1966" style="stop-color:#2B8FEF"/>
				<stop  offset="0.6471" style="stop-color:#258BEF"/>
				<stop  offset="1" style="stop-color:#1C86EE"/>
			</linearGradient>
			<path fill="url(#XMLID_2_)" d="M173.565,170.948c-5.882,17.946-22.134,28.634-34.979,22.834
				c-12.769-5.766-15.983-25.353-8.017-42.167c7.23-15.269,20.574-23.789,31.354-19.099
				C172.762,137.229,179.247,153.736,173.565,170.948z"/>
			
				<linearGradient id="XMLID_3_" gradientUnits="userSpaceOnUse" x1="158.2686" y1="362.709" x2="171.3202" y2="368.3468" gradientTransform="matrix(0.9393 -0.0248 -0.0248 0.9833 -11.5513 -199.1414)">
				<stop  offset="0" style="stop-color:#3694F0"/>
				<stop  offset="0.0169" style="stop-color:#3694F0"/>
				<stop  offset="0.1966" style="stop-color:#3092F0"/>
				<stop  offset="0.5721" style="stop-color:#2A8FEF"/>
				<stop  offset="1" style="stop-color:#1C87EE"/>
			</linearGradient>
			<path fill="url(#XMLID_3_)" d="M173.516,171.013c-5.892,17.867-22.073,28.451-34.853,22.646
				c-12.691-5.764-15.919-25.235-8.033-41.973c7.177-15.246,20.515-23.758,31.302-19.071
				C172.792,137.332,179.214,153.851,173.516,171.013z"/>
			
				<linearGradient id="XMLID_4_" gradientUnits="userSpaceOnUse" x1="156.8408" y1="361.5127" x2="171.2442" y2="367.813" gradientTransform="matrix(0.9413 -0.0237 -0.0237 0.9834 -11.0152 -198.4007)">
				<stop  offset="0" style="stop-color:#3D98F0"/>
				<stop  offset="0.0169" style="stop-color:#3D98F0"/>
				<stop  offset="0.1966" style="stop-color:#3595F0"/>
				<stop  offset="0.5225" style="stop-color:#2F92F0"/>
				<stop  offset="0.9596" style="stop-color:#1E88EE"/>
				<stop  offset="1" style="stop-color:#1C87EE"/>
			</linearGradient>
			<path fill="url(#XMLID_4_)" d="M173.466,171.077c-5.901,17.789-22.011,28.268-34.726,22.458
				c-12.613-5.761-15.856-25.118-8.049-41.777c7.123-15.223,20.455-23.729,31.25-19.043
				C172.821,137.435,179.182,153.966,173.466,171.077z"/>
			
				<linearGradient id="XMLID_5_" gradientUnits="userSpaceOnUse" x1="155.4414" y1="361.1729" x2="171.1777" y2="368.1425" gradientTransform="matrix(0.9433 -0.0226 -0.0226 0.9834 -10.4797 -198.4592)">
				<stop  offset="0" style="stop-color:#449CF1"/>
				<stop  offset="0.0169" style="stop-color:#449CF1"/>
				<stop  offset="0.1966" style="stop-color:#3998F1"/>
				<stop  offset="0.4933" style="stop-color:#3394F0"/>
				<stop  offset="0.8911" style="stop-color:#228AEF"/>
				<stop  offset="1" style="stop-color:#1C87EE"/>
			</linearGradient>
			<path fill="url(#XMLID_5_)" d="M173.417,171.142c-5.911,17.71-21.95,28.084-34.6,22.271c-12.535-5.759-15.793-25-8.065-41.583
				c7.069-15.201,20.395-23.698,31.197-19.015C172.851,137.538,179.149,154.081,173.417,171.142z"/>
			
				<linearGradient id="XMLID_6_" gradientUnits="userSpaceOnUse" x1="154.0322" y1="359.9834" x2="171.0822" y2="367.6288" gradientTransform="matrix(0.9453 -0.0215 -0.0215 0.9835 -9.9436 -197.7205)">
				<stop  offset="0" style="stop-color:#4B9FF1"/>
				<stop  offset="0.0169" style="stop-color:#4B9FF1"/>
				<stop  offset="0.1966" style="stop-color:#3E9BF1"/>
				<stop  offset="0.4648" style="stop-color:#3897F0"/>
				<stop  offset="0.8243" style="stop-color:#278DEF"/>
				<stop  offset="1" style="stop-color:#1C87EE"/>
			</linearGradient>
			<path fill="url(#XMLID_6_)" d="M173.367,171.206c-5.919,17.631-21.888,27.901-34.473,22.083
				c-12.458-5.757-15.73-24.883-8.082-41.388c7.015-15.178,20.334-23.667,31.144-18.987
				C172.88,137.641,179.117,154.196,173.367,171.206z"/>
			
				<linearGradient id="XMLID_7_" gradientUnits="userSpaceOnUse" x1="152.6333" y1="358.7979" x2="170.9788" y2="367.1256" gradientTransform="matrix(0.9473 -0.0204 -0.0204 0.9836 -9.4076 -196.9788)">
				<stop  offset="0" style="stop-color:#52A3F2"/>
				<stop  offset="0.0169" style="stop-color:#52A3F2"/>
				<stop  offset="0.1966" style="stop-color:#439DF2"/>
				<stop  offset="0.4425" style="stop-color:#3D9AF1"/>
				<stop  offset="0.772" style="stop-color:#2C91F0"/>
				<stop  offset="1" style="stop-color:#1C88EE"/>
			</linearGradient>
			<path fill="url(#XMLID_7_)" d="M173.318,171.271c-5.929,17.552-21.827,27.718-34.346,21.895
				c-12.38-5.754-15.667-24.765-8.099-41.193c6.961-15.155,20.275-23.636,31.092-18.958
				C172.909,137.744,179.084,154.312,173.318,171.271z"/>
			
				<linearGradient id="XMLID_8_" gradientUnits="userSpaceOnUse" x1="152.1626" y1="358.4795" x2="171.7877" y2="367.497" gradientTransform="matrix(0.9492 -0.0193 -0.0193 0.9836 -9.7137 -197.0374)">
				<stop  offset="0" style="stop-color:#59A7F2"/>
				<stop  offset="0.0169" style="stop-color:#59A7F2"/>
				<stop  offset="0.1966" style="stop-color:#48A0F2"/>
				<stop  offset="0.4243" style="stop-color:#429DF1"/>
				<stop  offset="0.7295" style="stop-color:#3193F0"/>
				<stop  offset="1" style="stop-color:#1C88EE"/>
			</linearGradient>
			<path fill="url(#XMLID_8_)" d="M173.268,171.335c-5.938,17.474-21.766,27.535-34.22,21.707
				c-12.302-5.751-15.604-24.647-8.115-40.998c6.907-15.132,20.215-23.606,31.039-18.931
				C172.939,137.847,179.052,154.426,173.268,171.335z"/>
			
				<linearGradient id="XMLID_9_" gradientUnits="userSpaceOnUse" x1="151.6733" y1="358.1885" x2="172.5605" y2="367.9024" gradientTransform="matrix(0.9512 -0.0183 -0.0183 0.9837 -9.9778 -197.1411)">
				<stop  offset="0" style="stop-color:#5FAAF3"/>
				<stop  offset="0.0169" style="stop-color:#5FAAF3"/>
				<stop  offset="0.1966" style="stop-color:#4DA3F3"/>
				<stop  offset="0.4093" style="stop-color:#47A0F2"/>
				<stop  offset="0.695" style="stop-color:#3696F1"/>
				<stop  offset="1" style="stop-color:#1C88EE"/>
			</linearGradient>
			<path fill="url(#XMLID_9_)" d="M173.219,171.399c-5.947,17.395-21.705,27.352-34.093,21.52
				c-12.224-5.75-15.541-24.53-8.131-40.804c6.853-15.109,20.155-23.576,30.986-18.903
				C172.968,137.95,179.02,154.542,173.219,171.399z"/>
			
				<linearGradient id="XMLID_10_" gradientUnits="userSpaceOnUse" x1="150.3096" y1="357.8555" x2="172.4399" y2="368.2715" gradientTransform="matrix(0.9532 -0.0172 -0.0172 0.9837 -9.4408 -197.1987)">
				<stop  offset="0" style="stop-color:#66AEF3"/>
				<stop  offset="0.0169" style="stop-color:#66AEF3"/>
				<stop  offset="0.1966" style="stop-color:#52A6F3"/>
				<stop  offset="0.3966" style="stop-color:#4CA3F2"/>
				<stop  offset="0.6652" style="stop-color:#3B9AF1"/>
				<stop  offset="0.9717" style="stop-color:#1F8BEE"/>
				<stop  offset="1" style="stop-color:#1C89EE"/>
			</linearGradient>
			<path fill="url(#XMLID_10_)" d="M173.169,171.464c-5.957,17.316-21.643,27.169-33.966,21.332
				c-12.146-5.747-15.478-24.413-8.148-40.609c6.799-15.086,20.095-23.545,30.934-18.875
				C172.998,138.053,178.987,154.657,173.169,171.464z"/>
			
				<linearGradient id="XMLID_11_" gradientUnits="userSpaceOnUse" x1="148.9375" y1="356.6768" x2="172.294" y2="367.8012" gradientTransform="matrix(0.9552 -0.0161 -0.0161 0.9838 -8.9037 -196.458)">
				<stop  offset="0" style="stop-color:#6DB2F4"/>
				<stop  offset="0.0169" style="stop-color:#6DB2F4"/>
				<stop  offset="0.1966" style="stop-color:#57A9F4"/>
				<stop  offset="0.3857" style="stop-color:#51A6F3"/>
				<stop  offset="0.6397" style="stop-color:#409CF2"/>
				<stop  offset="0.9294" style="stop-color:#248DEF"/>
				<stop  offset="1" style="stop-color:#1C89EE"/>
			</linearGradient>
			<path fill="url(#XMLID_11_)" d="M173.12,171.528c-5.966,17.237-21.582,26.985-33.84,21.144
				c-12.068-5.745-15.415-24.295-8.164-40.415c6.745-15.063,20.035-23.514,30.881-18.846
				C173.027,138.156,178.955,154.771,173.12,171.528z"/>
			
				<linearGradient id="XMLID_12_" gradientUnits="userSpaceOnUse" x1="147.5771" y1="355.5" x2="172.142" y2="367.3387" gradientTransform="matrix(0.9572 -0.015 -0.015 0.9839 -8.3681 -195.7183)">
				<stop  offset="0" style="stop-color:#74B5F4"/>
				<stop  offset="0.0169" style="stop-color:#74B5F4"/>
				<stop  offset="0.1966" style="stop-color:#5CACF4"/>
				<stop  offset="0.3761" style="stop-color:#56A9F3"/>
				<stop  offset="0.6173" style="stop-color:#459FF2"/>
				<stop  offset="0.8925" style="stop-color:#2990EF"/>
				<stop  offset="1" style="stop-color:#1C89EE"/>
			</linearGradient>
			<path fill="url(#XMLID_12_)" d="M173.07,171.593c-5.975,17.159-21.52,26.802-33.713,20.956
				c-11.991-5.743-15.352-24.178-8.181-40.22c6.691-15.041,19.975-23.483,30.829-18.818
				C173.056,138.259,178.922,154.887,173.07,171.593z"/>
			
				<linearGradient id="XMLID_13_" gradientUnits="userSpaceOnUse" x1="146.2378" y1="355.1748" x2="171.9944" y2="367.7339" gradientTransform="matrix(0.9592 -0.0139 -0.0139 0.9839 -7.8316 -195.7758)">
				<stop  offset="0" style="stop-color:#7BB9F4"/>
				<stop  offset="0.0169" style="stop-color:#7BB9F4"/>
				<stop  offset="0.1966" style="stop-color:#60AFF4"/>
				<stop  offset="0.3694" style="stop-color:#5AACF3"/>
				<stop  offset="0.6015" style="stop-color:#49A2F2"/>
				<stop  offset="0.8663" style="stop-color:#2D92EF"/>
				<stop  offset="1" style="stop-color:#1C89EE"/>
			</linearGradient>
			<path fill="url(#XMLID_13_)" d="M173.02,171.657c-5.984,17.08-21.458,26.619-33.587,20.768
				c-11.913-5.74-15.288-24.06-8.197-40.024c6.637-15.019,19.915-23.453,30.776-18.791
				C173.086,138.362,178.89,155.001,173.02,171.657z"/>
			
				<linearGradient id="XMLID_14_" gradientUnits="userSpaceOnUse" x1="144.8911" y1="354.0039" x2="171.8237" y2="367.2899" gradientTransform="matrix(0.9612 -0.0128 -0.0128 0.984 -7.2951 -195.0351)">
				<stop  offset="0" style="stop-color:#82BDF5"/>
				<stop  offset="0.0169" style="stop-color:#82BDF5"/>
				<stop  offset="0.1966" style="stop-color:#65B2F5"/>
				<stop  offset="0.3618" style="stop-color:#5FAFF4"/>
				<stop  offset="0.5837" style="stop-color:#4EA5F3"/>
				<stop  offset="0.8368" style="stop-color:#3296F0"/>
				<stop  offset="1" style="stop-color:#1C8AEE"/>
			</linearGradient>
			<path fill="url(#XMLID_14_)" d="M172.971,171.722c-5.993,17.001-21.397,26.436-33.46,20.581
				c-11.835-5.738-15.225-23.943-8.213-39.83c6.583-14.996,19.855-23.423,30.724-18.762
				C173.115,138.465,178.857,155.117,172.971,171.722z"/>
			
				<linearGradient id="XMLID_15_" gradientUnits="userSpaceOnUse" x1="143.5674" y1="353.6846" x2="171.6586" y2="367.7029" gradientTransform="matrix(0.9632 -0.0117 -0.0117 0.984 -6.7595 -195.0946)">
				<stop  offset="0" style="stop-color:#89C0F5"/>
				<stop  offset="0.0169" style="stop-color:#89C0F5"/>
				<stop  offset="0.1966" style="stop-color:#6AB5F5"/>
				<stop  offset="0.355" style="stop-color:#64B2F4"/>
				<stop  offset="0.5677" style="stop-color:#53A8F3"/>
				<stop  offset="0.8103" style="stop-color:#3799F0"/>
				<stop  offset="1" style="stop-color:#1C8AEE"/>
			</linearGradient>
			<path fill="url(#XMLID_15_)" d="M172.921,171.786c-6.002,16.922-21.336,26.253-33.333,20.393
				c-11.757-5.736-15.162-23.825-8.23-39.635c6.529-14.973,19.795-23.392,30.671-18.734
				C173.145,138.568,178.825,155.232,172.921,171.786z"/>
			
				<linearGradient id="XMLID_16_" gradientUnits="userSpaceOnUse" x1="143.1123" y1="353.3994" x2="172.3497" y2="368.1578" gradientTransform="matrix(0.9652 -0.0107 -0.0107 0.9841 -7.0226 -195.1965)">
				<stop  offset="0" style="stop-color:#90C4F6"/>
				<stop  offset="0.0169" style="stop-color:#90C4F6"/>
				<stop  offset="0.1966" style="stop-color:#6FB8F6"/>
				<stop  offset="0.3489" style="stop-color:#69B5F5"/>
				<stop  offset="0.5534" style="stop-color:#58ABF4"/>
				<stop  offset="0.7867" style="stop-color:#3C9CF1"/>
				<stop  offset="1" style="stop-color:#1C8AEE"/>
			</linearGradient>
			<path fill="url(#XMLID_16_)" d="M172.872,171.851c-6.012,16.844-21.275,26.07-33.208,20.205
				c-11.679-5.733-15.099-23.708-8.246-39.44c6.475-14.95,19.735-23.361,30.618-18.706
				C173.174,138.671,178.792,155.347,172.872,171.851z"/>
			
				<linearGradient id="XMLID_17_" gradientUnits="userSpaceOnUse" x1="142.6772" y1="352.2402" x2="173.0432" y2="367.7437" gradientTransform="matrix(0.9671 -0.0096 -0.0096 0.9842 -7.3292 -194.4557)">
				<stop  offset="0" style="stop-color:#97C8F6"/>
				<stop  offset="0.0169" style="stop-color:#97C8F6"/>
				<stop  offset="0.1966" style="stop-color:#74BAF6"/>
				<stop  offset="0.3433" style="stop-color:#6EB7F5"/>
				<stop  offset="0.5404" style="stop-color:#5DAEF4"/>
				<stop  offset="0.7662" style="stop-color:#419FF1"/>
				<stop  offset="1" style="stop-color:#1C8BEE"/>
			</linearGradient>
			<path fill="url(#XMLID_17_)" d="M172.822,171.916c-6.021,16.765-21.213,25.886-33.081,20.017
				c-11.602-5.731-15.036-23.591-8.263-39.246c6.422-14.927,19.676-23.331,30.566-18.678
				C173.204,138.775,178.76,155.462,172.822,171.916z"/>
			
				<linearGradient id="XMLID_18_" gradientUnits="userSpaceOnUse" x1="141.3701" y1="351.9248" x2="172.8483" y2="368.1788" gradientTransform="matrix(0.9691 -0.0085 -0.0085 0.9842 -6.7932 -194.5143)">
				<stop  offset="0" style="stop-color:#9ECCF7"/>
				<stop  offset="0.0169" style="stop-color:#9ECCF7"/>
				<stop  offset="0.1966" style="stop-color:#79BDF7"/>
				<stop  offset="0.3383" style="stop-color:#73BAF6"/>
				<stop  offset="0.5286" style="stop-color:#62B1F5"/>
				<stop  offset="0.7466" style="stop-color:#46A1F2"/>
				<stop  offset="0.9837" style="stop-color:#1F8DEE"/>
				<stop  offset="1" style="stop-color:#1C8BEE"/>
			</linearGradient>
			<path fill="url(#XMLID_18_)" d="M172.772,171.98c-6.03,16.686-21.152,25.703-32.955,19.829
				c-11.524-5.729-14.973-23.473-8.279-39.051c6.368-14.904,19.616-23.3,30.514-18.65
				C173.233,138.878,178.728,155.577,172.772,171.98z"/>
			
				<linearGradient id="XMLID_19_" gradientUnits="userSpaceOnUse" x1="140.0654" y1="350.7637" x2="172.6386" y2="367.7731" gradientTransform="matrix(0.9711 -0.0074 -0.0074 0.9843 -6.2571 -193.7746)">
				<stop  offset="0" style="stop-color:#A5CFF7"/>
				<stop  offset="0.0169" style="stop-color:#A5CFF7"/>
				<stop  offset="0.1966" style="stop-color:#7EC0F7"/>
				<stop  offset="0.3337" style="stop-color:#78BDF6"/>
				<stop  offset="0.5178" style="stop-color:#67B3F5"/>
				<stop  offset="0.7287" style="stop-color:#4BA4F2"/>
				<stop  offset="0.958" style="stop-color:#248FEF"/>
				<stop  offset="1" style="stop-color:#1C8BEE"/>
			</linearGradient>
			<path fill="url(#XMLID_19_)" d="M172.723,172.044c-6.04,16.607-21.09,25.52-32.828,19.641
				c-11.446-5.726-14.91-23.355-8.296-38.856c6.314-14.881,19.556-23.27,30.461-18.622
				C173.262,138.981,178.695,155.692,172.723,172.044z"/>
			
				<linearGradient id="XMLID_20_" gradientUnits="userSpaceOnUse" x1="138.7705" y1="350.4512" x2="172.4257" y2="368.2228" gradientTransform="matrix(0.9731 -0.0063 -0.0063 0.9843 -5.7211 -193.8331)">
				<stop  offset="0" style="stop-color:#ACD3F8"/>
				<stop  offset="0.0169" style="stop-color:#ACD3F8"/>
				<stop  offset="0.1966" style="stop-color:#83C3F8"/>
				<stop  offset="0.3294" style="stop-color:#7DC0F7"/>
				<stop  offset="0.5078" style="stop-color:#6CB7F6"/>
				<stop  offset="0.7122" style="stop-color:#50A8F3"/>
				<stop  offset="0.9344" style="stop-color:#2993EF"/>
				<stop  offset="1" style="stop-color:#1C8CEE"/>
			</linearGradient>
			<path fill="url(#XMLID_20_)" d="M172.673,172.109c-6.049,16.528-21.029,25.336-32.701,19.453
				c-11.369-5.724-14.847-23.238-8.313-38.662c6.26-14.858,19.496-23.239,30.409-18.593
				C173.292,139.084,178.663,155.807,172.673,172.109z"/>
			
				<linearGradient id="XMLID_21_" gradientUnits="userSpaceOnUse" x1="137.479" y1="349.2939" x2="172.1988" y2="367.8322" gradientTransform="matrix(0.9751 -0.0052 -0.0052 0.9844 -5.184 -193.0929)">
				<stop  offset="0" style="stop-color:#B3D7F8"/>
				<stop  offset="0.0169" style="stop-color:#B3D7F8"/>
				<stop  offset="0.1966" style="stop-color:#87C6F8"/>
				<stop  offset="0.3262" style="stop-color:#81C3F7"/>
				<stop  offset="0.5004" style="stop-color:#70B9F6"/>
				<stop  offset="0.6998" style="stop-color:#54AAF3"/>
				<stop  offset="0.9166" style="stop-color:#2D95F0"/>
				<stop  offset="1" style="stop-color:#1C8CEE"/>
			</linearGradient>
			<path fill="url(#XMLID_21_)" d="M172.624,172.173c-6.058,16.45-20.968,25.153-32.575,19.265
				c-11.291-5.722-14.783-23.121-8.329-38.466c6.206-14.836,19.436-23.209,30.356-18.566
				C173.321,139.187,178.63,155.922,172.624,172.173z"/>
			
				<linearGradient id="XMLID_22_" gradientUnits="userSpaceOnUse" x1="136.1987" y1="348.1387" x2="171.9682" y2="367.449" gradientTransform="matrix(0.9771 -0.0041 -0.0041 0.9845 -4.648 -192.3512)">
				<stop  offset="0" style="stop-color:#BADAF8"/>
				<stop  offset="0.0169" style="stop-color:#BADAF8"/>
				<stop  offset="0.1966" style="stop-color:#8CC9F8"/>
				<stop  offset="0.3225" style="stop-color:#86C6F7"/>
				<stop  offset="0.4917" style="stop-color:#75BCF6"/>
				<stop  offset="0.6855" style="stop-color:#59ADF3"/>
				<stop  offset="0.896" style="stop-color:#3298F0"/>
				<stop  offset="1" style="stop-color:#1C8CEE"/>
			</linearGradient>
			<path fill="url(#XMLID_22_)" d="M172.574,172.238c-6.067,16.371-20.906,24.97-32.448,19.077
				c-11.213-5.719-14.72-23.003-8.345-38.271c6.152-14.813,19.376-23.178,30.303-18.538
				C173.351,139.29,178.598,156.037,172.574,172.238z"/>
			
				<linearGradient id="XMLID_23_" gradientUnits="userSpaceOnUse" x1="135.7803" y1="348.709" x2="172.5899" y2="368.7997" gradientTransform="matrix(0.9791 -0.0031 -0.0031 0.9845 -4.9106 -193.2528)">
				<stop  offset="0" style="stop-color:#C1DEF9"/>
				<stop  offset="0.0169" style="stop-color:#C1DEF9"/>
				<stop  offset="0.1966" style="stop-color:#91CCF9"/>
				<stop  offset="0.3191" style="stop-color:#8BC9F8"/>
				<stop  offset="0.4836" style="stop-color:#7ABFF7"/>
				<stop  offset="0.6721" style="stop-color:#5EB0F4"/>
				<stop  offset="0.877" style="stop-color:#379BF1"/>
				<stop  offset="1" style="stop-color:#1C8CEE"/>
			</linearGradient>
			<path fill="url(#XMLID_23_)" d="M172.524,172.302c-6.076,16.292-20.845,24.787-32.322,18.89
				c-11.135-5.717-14.657-22.886-8.361-38.077c6.098-14.791,19.316-23.147,30.25-18.509
				C173.38,139.393,178.565,156.152,172.524,172.302z"/>
			
				<linearGradient id="XMLID_24_" gradientUnits="userSpaceOnUse" x1="134.5112" y1="347.5576" x2="172.3416" y2="368.4317" gradientTransform="matrix(0.9811 -0.002 -0.002 0.9846 -4.3745 -192.5131)">
				<stop  offset="0" style="stop-color:#C8E2F9"/>
				<stop  offset="0.0169" style="stop-color:#C8E2F9"/>
				<stop  offset="0.1966" style="stop-color:#96CFF9"/>
				<stop  offset="0.3158" style="stop-color:#90CCF8"/>
				<stop  offset="0.4761" style="stop-color:#7FC2F7"/>
				<stop  offset="0.6597" style="stop-color:#63B3F4"/>
				<stop  offset="0.8591" style="stop-color:#3C9EF1"/>
				<stop  offset="1" style="stop-color:#1C8DEE"/>
			</linearGradient>
			<path fill="url(#XMLID_24_)" d="M172.475,172.367c-6.085,16.213-20.783,24.604-32.195,18.702
				c-11.057-5.715-14.594-22.768-8.378-37.882c6.044-14.768,19.256-23.117,30.198-18.481
				C173.409,139.496,178.533,156.267,172.475,172.367z"/>
			
				<linearGradient id="XMLID_25_" gradientUnits="userSpaceOnUse" x1="133.2515" y1="347.2549" x2="172.0898" y2="368.9183" gradientTransform="matrix(0.9831 -9.000000e-004 -9.000000e-004 0.9846 -3.8385 -192.5726)">
				<stop  offset="0" style="stop-color:#CEE5FA"/>
				<stop  offset="0.0169" style="stop-color:#CEE5FA"/>
				<stop  offset="0.1966" style="stop-color:#9BD2FA"/>
				<stop  offset="0.3129" style="stop-color:#95CFF9"/>
				<stop  offset="0.4691" style="stop-color:#84C5F8"/>
				<stop  offset="0.6481" style="stop-color:#68B6F5"/>
				<stop  offset="0.8425" style="stop-color:#41A1F1"/>
				<stop  offset="1" style="stop-color:#1C8DEE"/>
			</linearGradient>
			<path fill="url(#XMLID_25_)" d="M172.425,172.431c-6.095,16.135-20.722,24.42-32.068,18.514
				c-10.979-5.713-14.531-22.651-8.395-37.688c5.99-14.745,19.196-23.086,30.146-18.453
				C173.438,139.599,178.501,156.382,172.425,172.431z"/>
			
				<linearGradient id="XMLID_26_" gradientUnits="userSpaceOnUse" x1="132.0005" y1="346.1094" x2="171.8303" y2="368.5664" gradientTransform="matrix(0.9851 2.000000e-004 2.000000e-004 0.9847 -3.3019 -191.8309)">
				<stop  offset="0" style="stop-color:#D5E9FA"/>
				<stop  offset="0.0169" style="stop-color:#D5E9FA"/>
				<stop  offset="0.1966" style="stop-color:#A0D5FA"/>
				<stop  offset="0.31" style="stop-color:#9AD2F9"/>
				<stop  offset="0.4625" style="stop-color:#89C8F8"/>
				<stop  offset="0.6372" style="stop-color:#6DB9F5"/>
				<stop  offset="0.8269" style="stop-color:#46A4F2"/>
				<stop  offset="1" style="stop-color:#1C8DEE"/>
			</linearGradient>
			<path fill="url(#XMLID_26_)" d="M172.375,172.496c-6.104,16.056-20.661,24.237-31.942,18.326
				c-10.901-5.71-14.467-22.533-8.411-37.493c5.936-14.722,19.136-23.056,30.093-18.425
				C173.468,139.702,178.468,156.497,172.375,172.496z"/>
			
				<linearGradient id="XMLID_27_" gradientUnits="userSpaceOnUse" x1="131.6245" y1="344.9619" x2="172.4343" y2="368.2191" gradientTransform="matrix(0.987 0.0013 0.0013 0.9848 -3.6086 -191.0907)">
				<stop  offset="0" style="stop-color:#DCEDFB"/>
				<stop  offset="0.0169" style="stop-color:#DCEDFB"/>
				<stop  offset="0.1966" style="stop-color:#A5D7FB"/>
				<stop  offset="0.3074" style="stop-color:#9FD4FA"/>
				<stop  offset="0.4564" style="stop-color:#8ECBF9"/>
				<stop  offset="0.627" style="stop-color:#72BCF6"/>
				<stop  offset="0.8135" style="stop-color:#4BA7F2"/>
				<stop  offset="1" style="stop-color:#1C8EEE"/>
			</linearGradient>
			<path fill="url(#XMLID_27_)" d="M172.326,172.56c-6.113,15.977-20.6,24.054-31.815,18.138
				c-10.824-5.708-14.405-22.416-8.427-37.298c5.882-14.699,19.077-23.025,30.041-18.397
				C173.498,139.805,178.436,156.612,172.326,172.56z"/>
			
				<linearGradient id="XMLID_28_" gradientUnits="userSpaceOnUse" x1="130.3853" y1="344.666" x2="172.161" y2="368.7285" gradientTransform="matrix(0.989 0.0024 0.0024 0.9848 -3.072 -191.1483)">
				<stop  offset="0" style="stop-color:#E3F0FB"/>
				<stop  offset="0.0169" style="stop-color:#E3F0FB"/>
				<stop  offset="0.1966" style="stop-color:#AADAFB"/>
				<stop  offset="0.3049" style="stop-color:#A4D7FA"/>
				<stop  offset="0.4505" style="stop-color:#93CEF9"/>
				<stop  offset="0.6173" style="stop-color:#77BFF6"/>
				<stop  offset="0.7999" style="stop-color:#50AAF3"/>
				<stop  offset="0.9933" style="stop-color:#1E8FEE"/>
				<stop  offset="1" style="stop-color:#1C8EEE"/>
			</linearGradient>
			<path fill="url(#XMLID_28_)" d="M172.276,172.625c-6.122,15.898-20.538,23.871-31.688,17.951
				c-10.746-5.706-14.342-22.298-8.444-37.104c5.828-14.676,19.017-22.995,29.988-18.369
				C173.527,139.908,178.404,156.728,172.276,172.625z"/>
			
				<linearGradient id="XMLID_29_" gradientUnits="userSpaceOnUse" x1="129.1538" y1="343.5244" x2="171.8799" y2="368.3965" gradientTransform="matrix(0.991 0.0035 0.0035 0.9849 -2.536 -190.4085)">
				<stop  offset="0" style="stop-color:#EAF4FC"/>
				<stop  offset="0.0169" style="stop-color:#EAF4FC"/>
				<stop  offset="0.1966" style="stop-color:#AEDDFC"/>
				<stop  offset="0.303" style="stop-color:#A8DAFB"/>
				<stop  offset="0.446" style="stop-color:#97D0FA"/>
				<stop  offset="0.6099" style="stop-color:#7BC1F7"/>
				<stop  offset="0.7893" style="stop-color:#54ACF3"/>
				<stop  offset="0.9793" style="stop-color:#2291EF"/>
				<stop  offset="1" style="stop-color:#1C8EEE"/>
			</linearGradient>
			<path fill="url(#XMLID_29_)" d="M172.227,172.689c-6.132,15.82-20.477,23.688-31.563,17.763
				c-10.668-5.703-14.278-22.181-8.46-36.909c5.774-14.654,18.957-22.964,29.935-18.34
				C173.556,140.011,178.371,156.842,172.227,172.689z"/>
			
				<linearGradient id="XMLID_30_" gradientUnits="userSpaceOnUse" x1="128.7627" y1="344.0977" x2="172.4304" y2="369.787" gradientTransform="matrix(0.993 0.0045 0.0045 0.9849 -2.799 -191.3091)">
				<stop  offset="0" style="stop-color:#F1F8FC"/>
				<stop  offset="0.0169" style="stop-color:#F1F8FC"/>
				<stop  offset="0.1966" style="stop-color:#B3E0FC"/>
				<stop  offset="0.3008" style="stop-color:#ADDDFB"/>
				<stop  offset="0.4408" style="stop-color:#9CD3FA"/>
				<stop  offset="0.6013" style="stop-color:#80C4F7"/>
				<stop  offset="0.7769" style="stop-color:#59AFF4"/>
				<stop  offset="0.9628" style="stop-color:#2794EF"/>
				<stop  offset="1" style="stop-color:#1C8EEE"/>
			</linearGradient>
			<path fill="url(#XMLID_30_)" d="M172.177,172.753c-6.141,15.741-20.415,23.504-31.436,17.575
				c-10.59-5.701-14.215-22.063-8.477-36.713c5.72-14.631,18.896-22.934,29.882-18.313
				C173.586,140.114,178.339,156.958,172.177,172.753z"/>
			
				<linearGradient id="XMLID_31_" gradientUnits="userSpaceOnUse" x1="127.5474" y1="342.9619" x2="172.1376" y2="369.4703" gradientTransform="matrix(0.995 0.0056 0.0056 0.985 -2.2625 -190.5684)">
				<stop  offset="0" style="stop-color:#F8FBFD"/>
				<stop  offset="0.0169" style="stop-color:#F8FBFD"/>
				<stop  offset="0.1966" style="stop-color:#B8E3FD"/>
				<stop  offset="0.2987" style="stop-color:#B2E0FC"/>
				<stop  offset="0.4358" style="stop-color:#A1D7FB"/>
				<stop  offset="0.593" style="stop-color:#85C7F8"/>
				<stop  offset="0.765" style="stop-color:#5EB2F4"/>
				<stop  offset="0.9471" style="stop-color:#2C98F0"/>
				<stop  offset="1" style="stop-color:#1C8FEE"/>
			</linearGradient>
			<path fill="url(#XMLID_31_)" d="M172.128,172.818c-6.15,15.662-20.354,23.321-31.31,17.387
				c-10.512-5.699-14.152-21.946-8.493-36.519c5.667-14.608,18.837-22.903,29.83-18.285
				C173.615,140.217,178.306,157.072,172.128,172.818z"/>
			
				<linearGradient id="XMLID_32_" gradientUnits="userSpaceOnUse" x1="126.3384" y1="341.8262" x2="171.8396" y2="369.1599" gradientTransform="matrix(0.997 0.0067 0.0067 0.9851 -1.7269 -189.8292)">
				<stop  offset="0.0169" style="stop-color:#FFFFFD"/>
				<stop  offset="0.1966" style="stop-color:#BDE6FD"/>
				<stop  offset="0.2966" style="stop-color:#B7E3FC"/>
				<stop  offset="0.4311" style="stop-color:#A6D9FB"/>
				<stop  offset="0.5851" style="stop-color:#8ACAF8"/>
				<stop  offset="0.7538" style="stop-color:#63B5F5"/>
				<stop  offset="0.9323" style="stop-color:#319AF0"/>
				<stop  offset="1" style="stop-color:#1C8FEE"/>
			</linearGradient>
			<path fill="url(#XMLID_32_)" d="M172.078,172.882c-6.159,15.583-20.292,23.138-31.183,17.199
				c-10.435-5.696-14.089-21.828-8.509-36.324c5.612-14.585,18.777-22.873,29.777-18.256
				C173.645,140.32,178.274,157.188,172.078,172.882z"/>
		</g>
	</g>
	<g>
		
			<linearGradient id="XMLID_33_" gradientUnits="userSpaceOnUse" x1="166.0122" y1="393.9854" x2="150.6476" y2="353.6534" gradientTransform="matrix(1 0.0046 -0.0046 1 1.1965 -193.0119)">
			<stop  offset="0.0169" style="stop-color:#FFFFFF"/>
			<stop  offset="0.0405" style="stop-color:#FFF8D8"/>
			<stop  offset="0.0716" style="stop-color:#FFF0AB"/>
			<stop  offset="0.1058" style="stop-color:#FFE982"/>
			<stop  offset="0.1424" style="stop-color:#FFE35F"/>
			<stop  offset="0.182" style="stop-color:#FFDD41"/>
			<stop  offset="0.2257" style="stop-color:#FFD929"/>
			<stop  offset="0.2749" style="stop-color:#FFD617"/>
			<stop  offset="0.3331" style="stop-color:#FFD40A"/>
			<stop  offset="0.4089" style="stop-color:#FFD202"/>
			<stop  offset="0.5674" style="stop-color:#FFD200"/>
			<stop  offset="1" style="stop-color:#FF8B00"/>
		</linearGradient>
		<path fill="url(#XMLID_33_)" d="M147.12,187.316c4.339,0.356,8.61-1.264,12.102-3.756c2.569-1.834,4.758-4.103,6.455-6.705
			c0.011-0.016,0.021-0.03,0.032-0.046c0.334-0.516,0.649-1.044,0.945-1.585c0.004-0.009,0.01-0.019,0.015-0.027
			c0.595-1.095,1.106-2.24,1.528-3.428c1.909-5.384,2.465-11.116,1.254-16.729c-1.074-4.977-3.683-9.785-7.848-12.825
			c-1.986-1.449-4.133-2.337-6.601-2.493c-2.777-0.178-5.538,0.517-8.03,1.724c-0.291,0.19-0.582,0.382-0.874,0.591
			c-9.208,6.582-13.731,17.473-13.522,27.333c0.333,5.743,2.453,11.035,6.424,14.609C141.326,185.83,144.108,187.069,147.12,187.316
			z"/>
		<path fill="#1C86EE" d="M153.033,163.481c0.601-3.869-0.521-7.014-2.667-6.856c-2.315,0.169-4.756,4.057-5.247,8.465
			c-0.463,4.199,1.087,6.847,3.287,6.146C150.457,170.583,152.462,167.19,153.033,163.481z"/>
		<path fill="#1C86EE" d="M162.81,162.585c-0.231-0.074-0.597-0.121-1.02,0.095c-1.454,0.725-2.667,4.391-2.894,5.121
			c-0.32,1.026-1.309,4.483-0.474,5.76c0.221,0.333,0.542,0.538,0.911,0.59c0.918,0.125,1.581-0.733,1.999-1.386
			c0.242-0.379,0.49-0.839,0.735-1.366c0.351-0.752,0.686-1.622,0.961-2.51C163.691,166.778,164.545,163.153,162.81,162.585z"/>
		
			<linearGradient id="XMLID_34_" gradientUnits="userSpaceOnUse" x1="158.292" y1="338.2295" x2="155.0771" y2="352.0526" gradientTransform="matrix(1 0.0046 -0.0046 1 1.1965 -193.0119)">
			<stop  offset="0" style="stop-color:#FFFFFF"/>
			<stop  offset="0.4169" style="stop-color:#FFFFFD"/>
			<stop  offset="0.6466" style="stop-color:#FFFFF5"/>
			<stop  offset="0.8302" style="stop-color:#FFFFE7"/>
			<stop  offset="0.9894" style="stop-color:#FFFFD4"/>
			<stop  offset="1" style="stop-color:#FFFFD2"/>
		</linearGradient>
		<path opacity="0.75" fill="url(#XMLID_34_)" enable-background="new    " d="M141.197,150.582
			c-3.564,6.521-3.26,7.717,7.148,8.945c7.671,1.237,11.408,3.664,15.206,5.783c2.495,1.123,4.069,3.789,5.625,1.771
			c2.162-3.917,1.603-13.092-3.004-19.532C159.075,137.994,146.837,141.746,141.197,150.582z"/>
		
			<linearGradient id="XMLID_35_" gradientUnits="userSpaceOnUse" x1="175.8477" y1="335.4941" x2="143.9827" y2="383.2913" gradientTransform="matrix(1 0.0046 -0.0046 1 1.1965 -193.0119)">
			<stop  offset="0.0056" style="stop-color:#1C86EE"/>
			<stop  offset="0.3764" style="stop-color:#FCFFFC"/>
			<stop  offset="0.437" style="stop-color:#F0F9FB"/>
			<stop  offset="0.5465" style="stop-color:#D0E7F9"/>
			<stop  offset="0.6924" style="stop-color:#9DCCF6"/>
			<stop  offset="0.8669" style="stop-color:#56A6F2"/>
			<stop  offset="1" style="stop-color:#1C86EE"/>
		</linearGradient>
		<path fill="url(#XMLID_35_)" d="M172.066,151.754c-1.554-5.689-5.05-10.209-9.63-12.295c2.69,1.774,4.897,4.443,6.389,7.706
			c0.526,1.134,0.968,2.34,1.312,3.602c1.87,6.842,0.871,15.19-2.252,22.244c0.137-0.384,0.267-0.768,0.39-1.158
			c-0.13,0.322-0.262,0.64-0.4,0.955c0.008-0.019,0.019-0.035,0.027-0.052c-0.986,2.718-2.313,5.294-3.936,7.556
			c-4.164,5.813-10.433,9.758-16.543,9.778c6.986,0.858,14.452-3.611,19.266-10.485
			C172.159,171.788,174.464,160.527,172.066,151.754z"/>
		
			<linearGradient id="XMLID_36_" gradientUnits="userSpaceOnUse" x1="188.5327" y1="333.8271" x2="165.3142" y2="348.4286" gradientTransform="matrix(1 0.0046 -0.0046 1 1.1965 -193.0119)">
			<stop  offset="0" style="stop-color:#CDF0FC"/>
			<stop  offset="0.0783" style="stop-color:#C1E9FB"/>
			<stop  offset="0.2197" style="stop-color:#A1D6F9"/>
			<stop  offset="0.408" style="stop-color:#6EB7F4"/>
			<stop  offset="0.6339" style="stop-color:#278DEF"/>
			<stop  offset="0.6685" style="stop-color:#1C86EE"/>
		</linearGradient>
		<path fill="url(#XMLID_36_)" d="M164.347,140.85c-1.252-1.095-2.557-1.923-4.18-2.329c-1.721-0.431-3.5-0.504-5.256-0.272
			c-2.871,0.381-5.577,1.606-7.965,3.21c2.499-1.215,5.27-1.914,8.056-1.736c2.468,0.156,4.615,1.044,6.601,2.493
			c4.165,3.041,6.774,7.849,7.848,12.825c1.21,5.612,0.655,11.344-1.254,16.729c-0.421,1.188-0.933,2.333-1.528,3.428
			c-0.004,0.008-0.01,0.018-0.015,0.027c-0.296,0.541-0.611,1.069-0.945,1.585c-0.011,0.016-0.021,0.03-0.032,0.046
			c-1.697,2.602-3.886,4.871-6.455,6.705c-3.491,2.493-7.763,4.112-12.102,3.756c-3.012-0.248-5.794-1.487-8.12-3.336
			c-4.355-3.92-6.509-9.9-6.491-16.282c-0.254,7.874,2.441,15.292,8.147,19.606c2.122,1.605,4.418,2.496,6.768,2.785
			c3.806-0.012,7.673-1.548,11.056-4.109c4.964-3.635,8.633-9.352,10.469-14.971C172.079,161.433,172.626,148.089,164.347,140.85z"
			/>
	</g>
</g>
</svg>
